<svg width="60" height="60" viewBox="0 0 60 60" fill="none" xmlns="http://www.w3.org/2000/svg">
<path d="M49.3945 2.09766C48.8203 2.35547 48.1172 3.11719 47.9531 3.64453C47.8828 3.86719 47.8008 4.52344 47.7773 5.12109C47.707 6.36328 47.4609 7.00781 46.8633 7.58203C46.0547 8.35547 45.9492 8.36719 41.4844 8.4375C37.0312 8.50781 37.125 8.48438 36.3633 9.28125C35.8477 9.82031 35.625 10.418 35.625 11.2734C35.6367 12.4688 36.2578 13.4531 37.2773 13.875C37.6875 14.0508 37.7109 14.0859 38.5664 16.4883L39.4336 18.9258L32.0156 25.6406L24.5977 32.3555L20.1914 32.0859L15.7734 31.8164L13.8047 26.7891C12.7266 24.0117 11.8359 21.7148 11.8359 21.6562C11.8359 21.6094 12.4922 21.5625 13.3008 21.5625C14.9531 21.5625 15.3867 21.4453 16.043 20.8242C16.6406 20.2617 16.875 19.6523 16.875 18.6562C16.875 18.1523 16.8047 17.625 16.6875 17.3672C16.4648 16.8281 15.8906 16.2188 15.3398 15.9375C14.7422 15.6328 4.95703 14.2266 4.19531 14.3438C3.49219 14.4492 2.67188 14.9883 2.26172 15.5977C1.94531 16.0664 1.93359 16.1719 1.89844 17.6836C1.85156 19.5352 1.94531 19.9805 2.55469 20.6484C3.17578 21.3398 3.72656 21.5625 4.875 21.5625H5.83594L6.24609 22.582C6.46875 23.1562 7.58203 25.9922 8.71875 28.9102L10.793 34.1953L10.3828 34.8398C9.69141 35.9062 9.375 37.0547 9.375 38.4023C9.375 40.3008 10.0078 41.8594 11.2734 43.1016L11.9648 43.793L8.23828 47.168C6.1875 49.0195 4.46484 50.543 4.39453 50.5664C4.33594 50.5781 4.05469 50.6602 3.77344 50.7305C3.15234 50.9062 2.37891 51.5859 2.09766 52.207C1.78125 52.8984 1.78125 55.8633 2.09766 56.543C2.36719 57.1172 2.96484 57.7031 3.53906 57.9375C4.16016 58.1953 7.08984 58.1953 7.71094 57.9375C8.60156 57.5742 9.36328 56.5312 9.375 55.6875V55.3125H30H50.625V55.6875C50.6367 56.5312 51.3984 57.5742 52.2891 57.9375C52.6172 58.0781 53.1445 58.125 54.3984 58.125C56.2852 58.125 56.707 57.9961 57.3867 57.293C58.0195 56.6133 58.125 56.2148 58.125 54.3516C58.125 52.418 57.9961 52.0195 57.2227 51.3164C56.7773 50.918 56.6719 50.6719 55.7812 48.1875L54.8203 45.4922L55.3125 44.7656C55.9453 43.8281 56.5195 42.5859 56.8594 41.4141C57.0938 40.6055 57.1289 40.2305 57.1289 38.4375C57.1289 36.6445 57.0938 36.2695 56.8594 35.4609C55.7695 31.6758 53.0625 28.8633 49.3594 27.668L48.3398 27.3398L45.9727 20.7305L43.6172 14.1211L45.2109 14.0508C46.207 14.0039 47.0625 13.8984 47.4609 13.7695C50.25 12.9023 52.5 10.5586 53.2031 7.78125C53.5312 6.52734 53.5312 4.13672 53.2148 3.45703C52.9453 2.88281 52.3477 2.29688 51.7734 2.0625C51.1758 1.80469 49.9805 1.82812 49.3945 2.09766ZM51.1992 4.08984C51.5273 4.41797 51.5977 4.94531 51.457 6.10547C51.2109 8.29688 50.2383 9.90234 48.4805 11.0742C47.0859 12 45.9492 12.1875 41.5664 12.1875C38.2383 12.1875 37.8047 12.1172 37.6641 11.5547C37.5586 11.1211 37.6992 10.6992 38.0039 10.5234C38.1914 10.4062 39.3281 10.3594 42.3047 10.3125L46.3477 10.2539L47.0508 9.91406C47.9414 9.46875 48.8438 8.57812 49.2773 7.69922C49.5469 7.125 49.6172 6.79688 49.6875 5.76562C49.7578 4.53516 49.8867 4.06641 50.1797 3.94922C50.5195 3.80859 50.9883 3.87891 51.1992 4.08984ZM47.918 32.1914C51.4805 42.1523 54.4219 50.3789 54.457 50.4727C54.5039 50.5898 54.3398 50.625 53.707 50.625H52.8984L46.7578 33.4336C43.3828 23.9648 40.4414 15.7383 40.2305 15.1406L39.8438 14.0625H40.6523H41.4492L47.918 32.1914ZM9.59766 16.9805C13.1953 17.4961 14.4844 17.7188 14.6484 17.8711C15.1523 18.3281 14.9766 19.2539 14.3438 19.5234C13.7695 19.7695 4.98047 19.7578 4.40625 19.5234C3.89062 19.3125 3.70312 18.7617 3.77344 17.6719C3.84375 16.8281 4.14844 16.2891 4.57031 16.2891C4.67578 16.2891 6.9375 16.6055 9.59766 16.9805ZM40.4531 21.7852L40.6875 22.4062L40.418 22.6758C40.2656 22.8281 37.7578 25.1367 34.8398 27.8086L29.543 32.6719L28.5117 32.6133C27.9492 32.5781 27.4688 32.543 27.457 32.5312C27.3984 32.4844 40.043 21.1172 40.125 21.1406C40.1836 21.1523 40.3242 21.4453 40.4531 21.7852ZM9.87891 22.2891C11.1445 25.4648 13.7227 32.1328 13.6875 32.1562C13.6758 32.1797 13.3711 32.332 13.0312 32.4961L12.4102 32.8125L12.3164 32.543C12.2578 32.4023 11.2852 29.918 10.1484 27.0234C9.01172 24.1172 8.08594 21.7148 8.08594 21.6562C8.08594 21.6094 8.42578 21.5625 8.83594 21.5625H9.58594L9.87891 22.2891ZM42.0352 26.1797C42.3047 26.9531 42.5273 27.5859 42.5039 27.6094C42.4922 27.6211 42.0586 27.8086 41.5547 28.0195C39.5977 28.8281 37.6992 30.3984 36.5039 32.2031L35.9414 33.0586L34.4062 32.9766C33.5625 32.9297 32.7773 32.8594 32.6602 32.8242C32.4961 32.7656 33.4102 31.8633 36.9375 28.6289C39.4102 26.3555 41.4492 24.5625 41.4727 24.6445C41.4961 24.7266 41.7539 25.418 42.0352 26.1797ZM43.3359 29.8477C43.9805 31.6172 44.6484 33.5508 44.625 33.5742C44.6016 33.5977 43.1953 33.5156 41.4844 33.4102C39.0586 33.2578 38.3906 33.1758 38.4141 33.0586C38.4727 32.7891 39.293 31.875 40.0195 31.2773C40.5938 30.7969 42.8555 29.5312 43.1367 29.5312C43.1836 29.5312 43.2773 29.6719 43.3359 29.8477ZM50.25 30.2344C52.0547 31.1719 53.3438 32.5078 54.2578 34.3945C54.9492 35.8359 55.1953 36.8789 55.1953 38.4727C55.1953 39.8906 54.9258 41.1211 54.3398 42.3398L53.9648 43.1367L51.6211 36.5625C50.332 32.9414 49.2656 29.9414 49.2422 29.8711C49.1719 29.6953 49.3242 29.7422 50.25 30.2344ZM30.9375 34.7461C38.6367 35.2266 45.0469 35.625 45.1758 35.625C45.375 35.625 45.5508 36.0117 46.3242 38.1797C46.8164 39.5859 47.2266 40.7695 47.2266 40.8047C47.2266 41.0625 45.2461 41.2266 33.5742 41.9531C26.4844 42.3984 20.4141 42.7852 20.0859 42.8086L19.4883 42.8438L18.8203 41.6367L18.1523 40.418L18.4453 39.8086C18.6797 39.3633 18.75 39.0352 18.75 38.4727C18.75 36.75 17.6367 35.625 15.9375 35.625C14.25 35.625 13.125 36.75 13.125 38.4375C13.125 39.2812 13.3477 39.8789 13.8633 40.4062C14.3906 40.957 14.8242 41.1562 15.6445 41.2383L16.3477 41.3086L16.7812 42.1172C17.0273 42.5625 17.2266 42.9492 17.2266 42.9844C17.2266 43.0078 16.6641 43.0078 15.9727 42.9844C14.9062 42.9492 14.6016 42.8906 14.0273 42.6328C13.1602 42.2227 12.1523 41.2148 11.7422 40.3477C11.4609 39.7383 11.4258 39.5273 11.4258 38.4375C11.4258 37.3477 11.4609 37.1367 11.7305 36.5625C12.5625 34.8281 14.0625 33.8789 15.9961 33.8672C16.5117 33.8672 23.2383 34.2656 30.9375 34.7461ZM16.5234 37.8516C16.6523 37.9805 16.7578 38.2383 16.7578 38.4375C16.7578 38.6367 16.6523 38.8945 16.5234 39.0234C16.3945 39.1523 16.1367 39.2578 15.9375 39.2578C15.7383 39.2578 15.4805 39.1523 15.3516 39.0234C15.2227 38.8945 15.1172 38.6367 15.1172 38.4375C15.1172 38.2383 15.2227 37.9805 15.3516 37.8516C15.4805 37.7227 15.7383 37.6172 15.9375 37.6172C16.1367 37.6172 16.3945 37.7227 16.5234 37.8516ZM48.7148 44.8945C49.1133 46.0195 49.4531 46.957 49.4531 46.9922C49.4531 47.0391 49.2773 47.1211 49.0781 47.2031C47.543 47.7422 45.3281 47.8594 43.7578 47.4609C42.5625 47.1562 40.9102 46.3359 40.0312 45.6094C39.2227 44.9414 38.2734 43.8281 38.4023 43.7109C38.4492 43.6641 40.3711 43.5234 42.668 43.3828C45.3633 43.2188 46.9922 43.0781 47.2969 42.9727C47.543 42.8789 47.8008 42.8086 47.8711 42.8203C47.9297 42.8438 48.3047 43.7695 48.7148 44.8945ZM36.5039 44.6719C38.0039 46.9336 40.2773 48.5859 42.9609 49.3594C43.7812 49.5938 44.1328 49.6289 45.9961 49.6172C47.9297 49.6172 48.1875 49.5938 49.1016 49.3125C49.6523 49.1367 50.1328 49.0312 50.168 49.0781C50.2148 49.125 50.4375 49.7109 50.6719 50.3789L51.1055 51.6094L50.8594 52.1602C50.7305 52.4648 50.625 52.875 50.625 53.0742V53.4375H30.2695C19.0781 53.4375 9.96094 53.3906 10.0312 53.3438C10.5234 52.8984 17.6367 46.3711 18.0703 45.9609L18.6094 45.4336L19.0312 46.2656L19.4414 47.0859L18.9141 47.4023C18.1523 47.8477 17.9766 48.5625 18.4805 49.125C18.8672 49.5586 19.4766 49.4062 21.3281 48.3984C22.2773 47.8828 23.1445 47.3555 23.2617 47.2266C23.543 46.9102 23.543 46.2539 23.2734 45.9492C22.9219 45.5625 22.4297 45.5273 21.8086 45.8438L21.2578 46.1367L20.8828 45.4453L20.5195 44.7656L20.8359 44.7539C21.0117 44.7539 24.2344 44.543 28.0078 44.3086C31.7812 44.0625 35.1094 43.8516 35.4023 43.8398L35.9414 43.8281L36.5039 44.6719ZM15.2695 44.9883L16.0664 45.0586L12.457 48.3633L8.84766 51.6797L8.49609 51.3281C8.30859 51.1406 7.96875 50.918 7.75781 50.8242L7.38281 50.6719L10.6289 47.7188C13.5 45.1289 13.9219 44.7773 14.1797 44.8477C14.3438 44.8828 14.8359 44.9531 15.2695 44.9883ZM6.84375 52.6641C7.33594 52.8633 7.5 53.3086 7.5 54.375C7.5 55.8984 7.14844 56.25 5.64844 56.25C4.10156 56.25 3.75 55.9102 3.75 54.3984C3.75 53.332 3.91406 52.8633 4.38281 52.6641C4.86328 52.4648 6.35156 52.4531 6.84375 52.6641ZM55.5938 52.6641C56.0859 52.8633 56.25 53.3086 56.25 54.375C56.25 55.8984 55.8984 56.25 54.3984 56.25C52.8516 56.25 52.5 55.9102 52.5 54.3984C52.5 53.332 52.6641 52.8633 53.1328 52.6641C53.6133 52.4648 55.1016 52.4531 55.5938 52.6641Z" fill="#F4732A"/>
</svg>
