<svg width="60" height="60" viewBox="0 0 60 60" fill="none" xmlns="http://www.w3.org/2000/svg">
<path d="M2.28516 0.1875C1.64062 0.410156 1.00781 0.960938 0.609375 1.61719L0.292969 2.16797V24.0234V45.8789L0.550781 46.3477C0.84375 46.8984 1.41797 47.4609 1.99219 47.7656C2.37891 47.9766 2.83594 47.9883 9.58594 48.0234L16.7578 48.0586L17.0508 47.7656C17.4023 47.4141 17.4258 47.0039 17.1211 46.6289L16.8984 46.3477L9.79688 46.2891L2.69531 46.2305L2.37891 45.9023L2.05078 45.5859L2.01562 35.2734L1.99219 24.9609H12.6562H23.3203V35.625V46.2891H21.8555C21.0234 46.2891 20.2734 46.3477 20.1094 46.418C19.5117 46.6875 19.4648 47.625 20.0273 47.918C20.1797 48.0117 22.7695 48.0469 27.9961 48.0469H35.7305L35.7656 52.9336C35.8008 57.7031 35.8125 57.8438 36.0586 58.3008C36.3516 58.8516 36.9258 59.4141 37.5 59.7188C37.8867 59.9297 38.3789 59.9414 47.7539 59.9414H57.5977L58.0664 59.6836C58.6875 59.3555 59.2266 58.7695 59.5195 58.125C59.7539 57.6211 59.7656 57.375 59.7656 51.3164C59.7656 44.2148 59.7773 44.2969 58.8867 43.418C58.6172 43.1484 58.1602 42.832 57.8672 42.7148L57.3281 42.5156L57.2812 39.7383C57.2344 37.2656 57.1992 36.8906 56.9648 36.1523C56.1211 33.5273 54.2344 31.3828 51.7969 30.2578C50.8008 29.7891 49.5234 29.4141 48.9609 29.4141C48.2227 29.4141 48.2812 30.5742 48.2812 15.9492C48.2812 0.867188 48.3516 1.93359 47.3438 0.9375C46.3359 -0.0820312 48.4219 0 24.2109 0.0117188C5.89453 0.0117188 2.68359 0.046875 2.28516 0.1875ZM23.3438 3.64453C23.3789 5.46094 23.3906 5.53125 23.6602 5.75391C24.0117 6.04688 24.5508 6.03516 24.8438 5.74219C25.0547 5.53125 25.0781 5.35547 25.0781 3.63281V1.75781H35.2734C44.168 1.75781 45.5273 1.78125 45.8203 1.93359C46.5586 2.30859 46.5234 1.80469 46.5234 13.0078V23.2031L35.8359 23.1797L25.1367 23.1445L25.1016 16.0312L25.0781 8.91797L24.7734 8.68359C24.3633 8.36719 24.1055 8.37891 23.707 8.71875L23.3789 9L23.3438 16.1016L23.3203 23.2031H12.6562H1.99219V13.0078C1.99219 4.125 2.01562 2.75391 2.16797 2.46094C2.54297 1.73438 2.01562 1.76953 13.1484 1.75781H23.2969L23.3438 3.64453ZM46.5234 27.1641V29.3672L45.6211 29.5781C42.5508 30.2812 39.9258 32.5664 38.8008 35.4844C38.2969 36.8086 38.2031 37.5234 38.2031 40.1367V42.5039L37.6523 42.7148C36.5039 43.1602 35.7422 44.332 35.7422 45.668V46.2891H30.4102H25.0781V35.625V24.9609H35.8008H46.5234V27.1641ZM50.0156 31.418C51.5625 31.8984 53.2734 33.1289 54.1523 34.418C55.3125 36.0938 55.5469 37.0664 55.5469 40.1719V42.5508L54.9375 42.5156L54.3164 42.4805L54.2578 39.9609C54.1992 37.9453 54.1523 37.3242 53.9766 36.8555C53.3906 35.2148 52.1836 33.832 50.7188 33.1172C49.8281 32.6719 48.5625 32.3438 47.7539 32.3438C46.9453 32.3438 45.6797 32.6719 44.7891 33.1172C43.3242 33.832 42.1172 35.2148 41.5312 36.8555C41.3555 37.3242 41.3086 37.9453 41.25 39.9609L41.1914 42.4805L40.582 42.5156L39.9609 42.5508V40.1719C39.9609 37.4297 40.0547 36.9258 40.8047 35.3906C41.6484 33.6562 43.4883 32.0625 45.3398 31.4648C46.7578 31.0078 48.5859 30.9844 50.0156 31.418ZM49.8984 34.6406C50.7773 35.0742 51.6211 35.9414 52.0664 36.8789L52.4414 37.6758L52.4766 40.1016L52.5117 42.5391H47.7539H42.9961L43.0312 40.1016L43.0664 37.6758L43.4414 36.8789C43.8984 35.9297 44.7422 35.0625 45.6328 34.6406C45.9844 34.4766 46.3359 34.3359 46.3945 34.3359C46.4883 34.3359 46.5234 35.168 46.5234 36.9023C46.5234 39.3164 46.5352 39.4805 46.7695 39.7734C47.0742 40.1602 47.625 40.1836 48.0117 39.8203C48.2812 39.5742 48.2812 39.5391 48.2812 36.8789V34.1836L48.7852 34.2656C49.0547 34.3125 49.5586 34.4766 49.8984 34.6406ZM57.4922 44.5078C57.6328 44.6133 57.8086 44.8242 57.8789 44.9648C57.9727 45.1406 58.0078 47.0625 58.0078 51.3164V57.4219L57.668 57.7969L57.3281 58.1836H47.7656H38.2031L37.8867 57.8555L37.5586 57.5391L37.5234 51.4688C37.5117 48.1406 37.5234 45.3047 37.5469 45.1641C37.582 45.0352 37.7578 44.7773 37.9219 44.6133L38.2383 44.2969H47.7422C56.5664 44.2969 57.2695 44.3203 57.4922 44.5078Z" fill="#344E41"/>
<path d="M6.26952 12.2226C4.33593 12.8672 3.0703 14.4609 2.95312 16.4062C2.70702 20.7304 7.83983 23.0742 10.875 20.0156C11.6016 19.289 12.0469 18.4218 12.2109 17.4258C12.5391 15.4687 11.4375 13.3828 9.62108 12.5156C8.96483 12.1992 8.6953 12.1406 7.79296 12.1054C7.13671 12.082 6.56249 12.1289 6.26952 12.2226ZM8.8828 14.1328C11.2734 15.3281 10.9453 18.7734 8.36718 19.5234C5.62499 20.3203 3.51562 16.9804 5.41405 14.8359C6.32812 13.7929 7.66405 13.5234 8.8828 14.1328Z" fill="#344E41"/>
<path d="M6.26953 16.2305C6.10547 16.3828 5.97656 16.6523 5.97656 16.8164C5.97656 16.9805 6.10547 17.25 6.26953 17.4023C6.52734 17.6719 6.64453 17.6953 7.55859 17.6953C8.71875 17.6953 9.02344 17.5195 9.02344 16.8281C9.02344 16.1719 8.61328 15.9375 7.47656 15.9375C6.65625 15.9375 6.51562 15.9727 6.26953 16.2305Z" fill="#344E41"/>
<path d="M29.5898 12.2226C27.6562 12.8672 26.3906 14.4609 26.2734 16.4062C26.0273 20.7304 31.1601 23.0742 34.1953 20.0156C34.9219 19.289 35.3672 18.4218 35.5312 17.4258C35.8594 15.4687 34.7578 13.3828 32.9414 12.5156C32.2852 12.1992 32.0156 12.1406 31.1133 12.1054C30.457 12.082 29.8828 12.1289 29.5898 12.2226ZM32.2031 14.1328C34.5937 15.3281 34.2656 18.7734 31.6875 19.5234C28.9453 20.3203 26.8359 16.9804 28.7344 14.8359C29.6484 13.7929 30.9844 13.5234 32.2031 14.1328Z" fill="#344E41"/>
<path d="M29.5898 16.2305C29.4258 16.3828 29.2969 16.6523 29.2969 16.8164C29.2969 16.9805 29.4258 17.25 29.5898 17.4023C29.8477 17.6719 29.9648 17.6953 30.8789 17.6953C32.0391 17.6953 32.3438 17.5195 32.3438 16.8281C32.3438 16.1719 31.9336 15.9375 30.7969 15.9375C29.9766 15.9375 29.8359 15.9727 29.5898 16.2305Z" fill="#344E41"/>
<path d="M29.7656 35.4375C28.4063 35.8125 27.293 36.7266 26.6953 37.9453C26.332 38.6836 26.3086 38.8125 26.3086 39.9609C26.3086 41.1211 26.332 41.25 26.6953 41.9766C27.1758 42.9609 28.1953 43.9336 29.1445 44.3086C29.6836 44.5313 30.0586 44.5781 30.9492 44.5898C32.0039 44.5898 32.1094 44.5664 32.9531 44.1445C35.7422 42.7734 36.4453 39.2227 34.4063 36.8555C33.3516 35.6133 31.3359 35.0039 29.7656 35.4375ZM32.1563 37.3242C33.6563 38.0391 34.2656 39.9023 33.4688 41.3438C32.707 42.7266 31.0898 43.2656 29.707 42.6094C27.3398 41.4961 27.4922 38.1094 29.9531 37.1953C30.5156 36.9844 31.5703 37.0547 32.1563 37.3242Z" fill="#344E41"/>
<path d="M29.5313 39.5155C29.0391 40.0546 29.379 40.8163 30.1876 40.9686C30.8086 41.0858 31.8633 40.9452 32.1211 40.7108C32.4141 40.4413 32.4258 39.7147 32.1329 39.4569C31.9688 39.3046 31.6758 39.2577 30.8438 39.2577C29.8946 39.2577 29.7422 39.2811 29.5313 39.5155Z" fill="#344E41"/>
<path d="M47.0391 45.5862C45.8438 45.8323 44.6602 46.7815 44.1445 47.9065C43.9453 48.3401 43.8867 48.6799 43.8867 49.5119C43.8867 50.8127 44.1211 51.3869 45.0586 52.3713L45.7031 53.051V53.9182C45.7031 54.926 45.8438 55.2541 46.4062 55.6408C46.7812 55.8869 46.9219 55.9104 47.9531 55.8752C49.0195 55.8401 49.1016 55.8166 49.4414 55.5002C49.875 55.0901 50.0391 54.5627 50.0391 53.6369C50.0391 52.9807 50.0625 52.9221 50.5547 52.4416C50.8477 52.1604 51.2227 51.6565 51.4102 51.3166C51.7031 50.7424 51.7383 50.5666 51.7383 49.5119C51.7383 48.469 51.7031 48.2815 51.4219 47.7424C51.0117 46.969 49.9688 46.0198 49.2539 45.7737C48.5391 45.5276 47.6484 45.4573 47.0391 45.5862ZM48.4336 47.3557C48.9844 47.508 49.6758 48.094 49.875 48.5979C49.9688 48.8088 50.0391 49.219 50.0391 49.5119C50.0391 49.8049 49.9688 50.2151 49.875 50.426C49.7344 50.7658 49.5352 50.9651 48.5508 51.7971C48.3047 51.9963 48.2812 52.1135 48.2812 53.0744V54.1408H47.8828H47.4844L47.4375 53.0744C47.4023 51.9143 47.4844 52.0549 46.4062 51.2229C45.0703 50.2033 45.457 47.9768 47.0742 47.4026C47.625 47.2034 47.8594 47.1916 48.4336 47.3557Z" fill="#344E41"/>
<path d="M6.44531 35.4375C5.08594 35.8125 3.97266 36.7266 3.375 37.9453C3.01172 38.6836 2.98828 38.8125 2.98828 39.9609C2.98828 41.1211 3.01172 41.25 3.375 41.9766C3.85547 42.9609 4.875 43.9336 5.82422 44.3086C6.36328 44.5313 6.73828 44.5781 7.62891 44.5898C8.68359 44.5898 8.78906 44.5664 9.63281 44.1445C12.4219 42.7734 13.125 39.2227 11.0859 36.8555C10.0312 35.6133 8.01562 35.0039 6.44531 35.4375ZM8.83594 37.3242C10.3359 38.0391 10.9453 39.9023 10.1484 41.3438C9.38672 42.7266 7.76953 43.2656 6.38672 42.6094C4.01953 41.4961 4.17188 38.1094 6.63281 37.1953C7.19531 36.9844 8.25 37.0547 8.83594 37.3242Z" fill="#344E41"/>
<path d="M6.21099 39.5155C5.7188 40.0546 6.05865 40.8163 6.86724 40.9686C7.48834 41.0858 8.54302 40.9452 8.80084 40.7108C9.09381 40.4413 9.10552 39.7147 8.81256 39.4569C8.64849 39.3046 8.35552 39.2577 7.52349 39.2577C6.57427 39.2577 6.42193 39.2811 6.21099 39.5155Z" fill="#344E41"/>
</svg>
