<svg width="60" height="60" viewBox="0 0 60 60" fill="none" xmlns="http://www.w3.org/2000/svg">
<path d="M0.597584 0.164062C-7.27475e-05 0.492188 0.011646 0.328125 0.011646 8.49609C-7.27372e-05 17.0508 -7.27475e-05 17.0625 0.82024 18.7266C1.39446 19.875 2.50774 21.0586 3.6093 21.6797L4.33586 22.0898L4.3593 39.7266L4.39446 57.3633L4.64055 57.9023C5.00383 58.6758 5.55462 59.2383 6.30462 59.6133C6.8554 59.8828 7.12493 59.9414 7.85149 59.9414C9.31633 59.9414 10.4531 59.2148 11.0624 57.9023L11.3085 57.3633L11.3437 39.7266L11.3788 22.0898L12.1054 21.6797C13.1952 21.0586 14.3085 19.875 14.8827 18.7266C15.7031 17.0625 15.7031 17.0391 15.7031 8.51953C15.7031 0.28125 15.7148 0.433594 15.0585 0.140625C14.6718 -0.0351562 14.3906 -0.0351562 14.0038 0.140625C13.3593 0.433594 13.3593 0.375 13.3593 7.38281V13.8281H12.3046H11.2499V7.38281C11.2499 2.64844 11.2148 0.867188 11.1093 0.644531C10.957 0.304688 10.4648 0 10.0781 0C9.69133 0 9.19915 0.304688 9.0468 0.644531C8.94133 0.867188 8.90618 2.64844 8.90618 7.38281V13.8281H7.85149H6.7968V7.38281C6.7968 2.64844 6.76165 0.867188 6.65618 0.644531C6.41008 0.09375 5.69524 -0.140625 5.09758 0.140625C4.45305 0.433594 4.45305 0.375 4.45305 7.38281V13.8281H3.39836H2.34368V7.38281C2.34368 2.64844 2.30852 0.867188 2.20305 0.644531C1.94524 0.0820312 1.1718 -0.152344 0.597584 0.164062ZM13.207 16.5703C13.0077 17.8242 11.6601 19.4062 10.3593 19.9102C9.9843 20.0625 9.52727 20.332 9.35149 20.5195L9.02337 20.8594V38.8008C9.02337 58.3008 9.05852 57.2109 8.37883 57.5156C7.99212 57.6914 7.71087 57.6914 7.32415 57.5156C6.64446 57.2109 6.67962 58.3008 6.67962 38.8008V20.8828L6.37493 20.5195C6.21087 20.3203 6.01165 20.1562 5.92961 20.1562C5.56633 20.1562 4.33586 19.4062 3.78508 18.8555C3.16399 18.2344 2.60149 17.2383 2.49602 16.5703L2.42571 16.1719H7.85149H13.2773L13.207 16.5703Z" fill="#F4732A"/>
<path d="M57.8201 0.457031C56.7537 1.17188 55.242 2.53125 54.2342 3.67969C51.7615 6.46875 50.0623 9.96094 49.3123 13.7344C49.0545 15.0234 49.0545 15.3164 49.0076 24.1523C48.9725 34.1953 48.9608 34.0664 49.699 35.5312C49.9686 36.0586 50.4725 36.6797 51.5154 37.7344L52.9686 39.2109L52.992 48.293C53.0272 57.2344 53.0272 57.375 53.2733 57.9023C53.6365 58.6758 54.1873 59.2383 54.9373 59.6133C55.4881 59.8828 55.7576 59.9414 56.4842 59.9414C57.949 59.9414 59.0858 59.2148 59.6951 57.9023L59.9412 57.3633L59.9764 29.1797C59.9998 8.09766 59.9647 0.914062 59.8709 0.667969C59.7186 0.304688 59.2264 0 58.7928 0C58.6287 0 58.1951 0.210938 57.8201 0.457031ZM57.5272 56.9883C57.3748 57.3398 56.8826 57.6562 56.4842 57.6562C56.1444 57.6562 55.5936 57.3516 55.4764 57.1055C55.4178 56.9883 55.3475 52.6875 55.3123 47.5547L55.2537 38.2148L53.6014 36.5391C52.5233 35.4375 51.8553 34.6641 51.6678 34.2773L51.3865 33.6914L51.3514 25.0898C51.3279 17.9648 51.3514 16.2422 51.5037 15.1289C52.0194 11.1094 53.8123 7.41797 56.6014 4.58203L57.5975 3.57422L57.6326 30.1172C57.6561 49.9219 57.6209 56.7422 57.5272 56.9883Z" fill="#F4732A"/>
<path d="M27.4219 7.74609C25.2656 7.99219 22.6055 8.74219 20.6836 9.65625C19.5117 10.207 19.2188 10.5 19.2188 11.1094C19.2188 11.6484 19.7578 12.1875 20.2852 12.1875C20.4961 12.1875 21.3516 11.9062 22.1953 11.5547C25.5938 10.1367 29.0625 9.66797 32.6133 10.1367C36.8672 10.6992 40.5117 12.4219 43.6992 15.4102C44.8008 16.4297 44.9297 16.5234 45.3633 16.5234C46.043 16.5234 46.5234 16.0312 46.5234 15.3398C46.5234 14.8828 46.4648 14.7891 45.6445 13.9922C42 10.4531 37.3945 8.29688 32.3203 7.74609C31.0078 7.59375 28.7109 7.60547 27.4219 7.74609Z" fill="#F4732A"/>
<path d="M28.3008 13.4297C25.7344 13.7109 22.8867 14.7656 20.6367 16.2656C19.3242 17.1328 17.1328 19.3242 16.2656 20.625C15 22.5352 14.168 24.4922 13.6875 26.707C13.3242 28.3125 13.336 31.6641 13.6875 33.293C15.1406 39.9375 20.0977 44.8828 26.7539 46.3125C28.4649 46.6758 31.5352 46.6758 33.2344 46.3125C34.9453 45.9492 36.0938 45.5391 37.6289 44.7422C42.0938 42.457 45.2227 38.3086 46.3125 33.2461C46.6524 31.6523 46.6758 28.582 46.3594 27.0117C45.3164 21.7383 42.0469 17.4258 37.3242 15.082C35.0977 13.9805 33.0586 13.4883 30.4688 13.418C29.5313 13.3945 28.5586 13.4062 28.3008 13.4297ZM32.1211 15.8789C36.7032 16.5703 40.6875 19.4648 42.8086 23.6719C43.3946 24.8437 43.9219 26.5078 44.1211 27.8789C45.293 35.6484 39.9024 42.9492 32.1094 44.1328C25.9336 45.0586 19.8164 41.8008 17.1094 36.1523C13.9102 29.4609 16.3594 21.5156 22.793 17.6719C25.5117 16.043 28.9102 15.3867 32.1211 15.8789Z" fill="#F4732A"/>
<path d="M29.4609 19.3359C29.0742 19.4883 28.8281 19.9219 28.8281 20.4258C28.8281 21.5977 30.4688 21.9961 31.0078 20.9648C31.5352 19.9336 30.5391 18.8906 29.4609 19.3359Z" fill="#F4732A"/>
<path d="M25.1483 20.4023C22.0311 21.9727 19.828 25.0664 19.3475 28.5351C19.1366 30.0586 19.16 30.3164 19.6171 30.7734C20.0624 31.2187 20.4374 31.2773 20.9647 30.9961C21.3749 30.7851 21.5038 30.4453 21.6561 29.1094C21.7967 27.8789 22.1952 26.6367 22.7577 25.6875C23.3436 24.6797 24.8553 23.2383 25.9569 22.6289C26.4725 22.3359 26.9882 22.0312 27.0936 21.9375C27.3983 21.6797 27.4803 21.0703 27.2577 20.6484C26.8827 19.9336 26.2147 19.8516 25.1483 20.4023Z" fill="#F4732A"/>
<path d="M46.2655 42.0469C46.16 42.0938 45.4452 42.7852 44.6952 43.582C41.66 46.7578 38.6131 48.5391 34.535 49.5117C29.66 50.6719 24.2694 49.8633 19.9803 47.3438C19.3241 46.957 18.785 46.7227 18.5506 46.7227C17.742 46.6992 17.1561 47.543 17.4608 48.293C17.6483 48.7266 18.2928 49.1602 19.9803 50.0039C29.4256 54.7383 40.8983 52.2188 47.496 43.9688C47.6952 43.711 47.8124 43.418 47.8124 43.1719C47.8124 42.4453 46.8866 41.7774 46.2655 42.0469Z" fill="#F4732A"/>
<path d="M14.4258 43.9922C14.2735 44.0742 14.0742 44.2734 13.9922 44.4258C13.336 45.6094 14.8828 46.7812 15.8321 45.832C16.7813 44.8828 15.6094 43.3359 14.4258 43.9922Z" fill="#F4732A"/>
</svg>
