<svg width="60" height="60" viewBox="0 0 60 60" fill="none" xmlns="http://www.w3.org/2000/svg">
<g clip-path="url(#clip0_418_220)">
<path d="M28.9219 0.292964C28.5234 0.691401 28.4766 0.996089 28.4766 3.1875C28.4766 5.1914 28.582 5.67187 29.0742 6.02343C29.5195 6.33984 30.1992 6.26953 30.5977 5.87109L30.9375 5.53125V3.1289V0.726558L30.6328 0.363276C30.375 0.0468702 30.2578 -4.76837e-06 29.7656 -4.76837e-06C29.332 -4.76837e-06 29.1445 0.058589 28.9219 0.292964Z" fill="#F4732A"/>
<path d="M23.918 0.398445C23.5547 0.597663 23.332 1.01954 23.3203 1.47657C23.3203 1.80469 23.8125 2.73048 24.9609 4.53516C25.3477 5.13282 26.3203 5.22657 26.8477 4.69923C27.3984 4.13673 27.3281 3.69141 26.4141 2.13282C25.9922 1.41798 25.4883 0.691413 25.2891 0.527351C24.9023 0.199226 24.3633 0.152351 23.918 0.398445Z" fill="#F4732A"/>
<path d="M34.5703 0.398442C34.4063 0.492192 33.9023 1.17188 33.4336 1.96875C32.7305 3.11719 32.5781 3.45704 32.5781 3.85547C32.5781 4.83985 33.7148 5.41407 34.4648 4.81641C34.9219 4.46485 36.3399 2.03907 36.4102 1.52344C36.4688 1.11329 36.4336 1.01954 36.0586 0.644536C35.6016 0.187505 35.1094 0.105474 34.5703 0.398442Z" fill="#F4732A"/>
<path d="M15.5039 4.57031C15.1992 4.74609 14.9297 5.17969 14.2383 6.5625C11.543 11.9531 9.52734 18.1289 8.84766 23.1445C8.58984 25.0078 8.57812 28.4648 8.83594 30.1172C9.1875 32.4375 9.86719 34.5 10.8047 36.0703C11.3672 37.0078 12.6445 38.3203 13.4648 38.7891C13.8516 39.0117 14.1797 39.2695 14.1797 39.3398C14.1797 39.5508 11.8242 52.1953 11.7773 52.2539C11.7422 52.2773 10.582 52.0664 9.17578 51.7852C6.38672 51.2344 5.44922 51.1758 4.80469 51.4922C3.69141 52.0664 3.04688 53.1797 3.04688 54.5625C3.04688 55.7812 3.57422 56.6719 4.60547 57.2109C5.17969 57.5039 17.9297 60 18.8555 60C20.1445 60 21.2578 59.1797 21.6211 57.9844C22.0078 56.6602 21.7734 55.4297 20.9648 54.6211C20.3789 54.0234 19.875 53.8594 16.9688 53.3086C14.8125 52.8984 14.2969 52.7695 14.2969 52.6172C14.2969 52.5117 14.8242 49.5938 15.4688 46.125C16.1133 42.6562 16.6406 39.7734 16.6406 39.7148C16.6406 39.6562 16.8398 39.6094 17.0859 39.6094C18.1758 39.6094 19.7461 38.9648 21.0938 37.957C24.082 35.7422 26.6719 31.1836 27.8672 26.0156C28.1719 24.7266 28.6523 21.6562 28.8516 19.8047C29.0508 17.8828 29.0508 10.2305 28.8516 8.64844C28.6875 7.28906 28.5586 6.99609 28.0781 6.75C27.7734 6.59766 16.5 4.33594 16.0312 4.33594C15.9492 4.33594 15.7031 4.44141 15.5039 4.57031ZM21.6445 7.93359L26.3555 8.84766L26.4492 9.60938C26.4961 10.0312 26.543 12.1875 26.543 14.4141C26.5312 17.5078 26.4844 18.8555 26.332 20.1562C26.1094 21.9961 25.6289 24.8672 25.4297 25.5703L25.3008 26.0156H18.2227H11.1328V25.4414C11.1328 22.6758 12.5156 17.0742 14.3555 12.4102C15.0234 10.7109 16.7344 7.03125 16.8633 7.03125C16.8984 7.01953 19.0547 7.42969 21.6445 7.93359ZM24.4922 28.582C24.4922 28.793 23.7656 30.4219 23.2148 31.4414C21.2812 35.0273 18.7852 37.1484 16.5117 37.1484C13.8867 37.1484 11.7891 33.9609 11.2031 29.0859L11.1211 28.4766H17.8125C21.4805 28.4766 24.4922 28.5234 24.4922 28.582ZM12.6914 55.0195C16.1719 55.6875 19.0781 56.2969 19.1719 56.3789C19.5352 56.6719 19.2773 57.5391 18.832 57.5391C18.375 57.5391 5.80078 55.0547 5.66016 54.9375C5.44922 54.7617 5.47266 54.1406 5.69531 53.8828C5.8125 53.7656 5.98828 53.6953 6.14062 53.7305C6.28125 53.7656 9.22266 54.3398 12.6914 55.0195Z" fill="#F4732A"/>
<path d="M23.168 11.0625C23.0039 11.2148 22.8398 11.5195 22.8047 11.7305C22.7695 11.9531 22.7227 13.8516 22.6875 15.9609L22.6289 19.7812L22.9219 20.0742C23.3203 20.4727 23.7773 20.5664 24.3047 20.3437C25.0664 20.0273 25.1016 19.793 25.1719 15.5273C25.2188 12.1992 25.207 11.7187 25.0313 11.3906C24.7969 10.9336 24.5273 10.7812 23.9297 10.7812C23.6133 10.7812 23.3789 10.8633 23.168 11.0625Z" fill="#F4732A"/>
<path d="M22.7695 22.7578C21.6796 23.0508 21.6093 24.5859 22.6757 25.0312C23.4492 25.3477 24.3749 24.75 24.3749 23.9062C24.3749 23.6602 23.9882 22.8516 23.8828 22.8516C23.8593 22.8516 23.6835 22.8047 23.496 22.7578C23.2968 22.6992 22.9804 22.6992 22.7695 22.7578Z" fill="#F4732A"/>
<path d="M37.6759 5.49609C34.5236 6.12891 31.84 6.67969 31.7345 6.72656C31.3009 6.92578 31.1486 7.39453 30.9845 9.07031C30.7618 11.3438 30.7736 17.0156 30.9962 19.4648C31.4884 24.7148 32.379 28.3945 33.9962 31.7578C35.0157 33.8789 36.0353 35.3438 37.4884 36.7969C39.2228 38.5195 40.84 39.4219 42.4806 39.5742L43.1954 39.6445L44.4493 46.1016C45.1407 49.6523 45.7032 52.6172 45.7032 52.6875C45.7032 52.7461 44.5079 53.0391 43.0431 53.3086C41.5665 53.5898 40.2071 53.8828 40.0079 53.9648C39.4571 54.1875 38.6603 54.9492 38.4259 55.4883C38.1446 56.0859 38.1329 57.3047 38.4025 58.0664C38.6486 58.8047 39.5157 59.6953 40.1486 59.8711C40.4064 59.9414 40.8751 60 41.2032 60C42.0939 60 54.8321 57.4922 55.3946 57.1992C55.9337 56.9297 56.5665 56.2617 56.7892 55.7109C56.8829 55.4883 56.9532 55.0078 56.9532 54.6328C56.9532 52.6406 55.7345 51.2695 53.965 51.2812C53.6486 51.2812 52.2306 51.5156 50.8243 51.7852C49.4181 52.0664 48.2462 52.2773 48.2228 52.2539C48.1993 52.2188 47.6017 49.2773 46.9103 45.7031L45.6329 39.1992L46.2775 38.8477C47.1915 38.3672 48.4571 37.043 49.172 35.8359C49.8634 34.6641 50.6251 32.5078 50.9415 30.8203C51.1056 29.9297 51.1525 29.0859 51.1525 26.6602C51.1525 24.0117 51.1173 23.4258 50.8946 22.1719C49.9571 17.0508 47.8595 10.8516 45.4923 6.28125C45.0587 5.44922 44.59 4.69922 44.4611 4.60547C44.3204 4.51172 44.0275 4.41797 43.8165 4.39453C43.5939 4.37109 40.84 4.86328 37.6759 5.49609ZM43.8634 8.63672C45.7501 12.6094 47.2384 16.8867 48.1056 20.8828C48.2696 21.6445 48.3986 22.3125 48.3986 22.3828C48.3986 22.4648 45.9845 22.5 41.1329 22.5H33.8673L33.8087 22.2305C33.7032 21.7383 33.5275 20.0977 33.3868 18.3516C33.2462 16.5938 33.3048 9.5625 33.4571 9.08203C33.5275 8.85938 34.0196 8.74219 38.0626 7.94531C40.5587 7.45312 42.7032 7.05469 42.8439 7.04297C43.0431 7.03125 43.2189 7.3125 43.8634 8.63672ZM48.715 27.2109C48.5978 31.3008 47.7071 34.1719 46.0196 35.8945C45.1173 36.8086 44.4728 37.0898 43.2306 37.0898C42.3048 37.0898 42.1642 37.0547 41.297 36.6328C39.1642 35.5781 36.8439 32.4727 35.4259 28.7812C35.0275 27.7148 34.3361 25.418 34.3361 25.1133C34.3361 24.9844 35.6368 24.9609 41.5548 24.9609H48.7853L48.715 27.2109ZM54.3751 54.0352C54.5392 54.3281 54.5157 54.7969 54.3517 54.9375C54.1993 55.0547 41.6251 57.5391 41.1681 57.5391C40.7228 57.5391 40.465 56.6719 40.8282 56.3789C41.0275 56.2148 53.8946 53.6836 54.1173 53.7656C54.1993 53.7891 54.3165 53.918 54.3751 54.0352Z" fill="#F4732A"/>
<path d="M40.9335 8.90625C40.3007 9.28125 40.2187 10.2656 40.7694 10.8164C40.8866 10.9453 41.2265 11.0625 41.5077 11.0977C41.9413 11.1445 42.0819 11.1094 42.3397 10.8867C43.2186 10.125 42.7265 8.67187 41.6015 8.67187C41.4374 8.67187 41.1444 8.77734 40.9335 8.90625Z" fill="#F4732A"/>
<path d="M42.7501 13.1836C42.0001 13.6055 42.0118 14.0039 42.9024 16.793C43.7462 19.4531 43.7813 19.5469 44.2032 19.7578C44.8477 20.0977 45.6095 19.8164 45.8907 19.1484C46.0431 18.7969 46.0431 18.6563 45.8673 18.0117C45.4806 16.4648 44.5079 13.6875 44.2618 13.4063C43.9337 13.0313 43.2071 12.9258 42.7501 13.1836Z" fill="#F4732A"/>
</g>
<defs>
<clipPath id="clip0_418_220">
<rect width="60" height="60" fill="white"/>
</clipPath>
</defs>
</svg>
