<svg width="60" height="60" viewBox="0 0 60 60" fill="none" xmlns="http://www.w3.org/2000/svg">
<g clip-path="url(#clip0_118_117)">
<path d="M28.9219 0.292842C28.5234 0.691279 28.4766 0.995967 28.4766 3.18737C28.4766 5.19128 28.582 5.67175 29.0742 6.02331C29.5195 6.33972 30.1992 6.2694 30.5977 5.87097L30.9375 5.53112V3.12878V0.726436L30.6328 0.363154C30.375 0.0467482 30.2578 -0.000126839 29.7656 -0.000126839C29.332 -0.000126839 29.1445 0.0584669 28.9219 0.292842Z" fill="#344E41"/>
<path d="M23.918 0.398292C23.5547 0.59751 23.332 1.01939 23.3203 1.47642C23.3203 1.80454 23.8125 2.73032 24.9609 4.53501C25.3477 5.13267 26.3203 5.22642 26.8477 4.69907C27.3984 4.13657 27.3281 3.69126 26.4141 2.13267C25.9922 1.41782 25.4883 0.69126 25.2891 0.527198C24.9023 0.199073 24.3633 0.152198 23.918 0.398292Z" fill="#344E41"/>
<path d="M34.5703 0.398473C34.4063 0.492223 33.9023 1.17191 33.4336 1.96879C32.7305 3.11722 32.5781 3.45707 32.5781 3.8555C32.5781 4.83988 33.7148 5.4141 34.4648 4.81644C34.9219 4.46488 36.3399 2.0391 36.4102 1.52347C36.4688 1.11332 36.4336 1.01957 36.0586 0.644567C35.6016 0.187535 35.1094 0.105504 34.5703 0.398473Z" fill="#344E41"/>
<path d="M15.5039 4.57031C15.1992 4.74609 14.9297 5.17969 14.2383 6.5625C11.543 11.9531 9.52734 18.1289 8.84766 23.1445C8.58984 25.0078 8.57812 28.4648 8.83594 30.1172C9.1875 32.4375 9.86719 34.5 10.8047 36.0703C11.3672 37.0078 12.6445 38.3203 13.4648 38.7891C13.8516 39.0117 14.1797 39.2695 14.1797 39.3398C14.1797 39.5508 11.8242 52.1953 11.7773 52.2539C11.7422 52.2773 10.582 52.0664 9.17578 51.7852C6.38672 51.2344 5.44922 51.1758 4.80469 51.4922C3.69141 52.0664 3.04688 53.1797 3.04688 54.5625C3.04688 55.7812 3.57422 56.6719 4.60547 57.2109C5.17969 57.5039 17.9297 60 18.8555 60C20.1445 60 21.2578 59.1797 21.6211 57.9844C22.0078 56.6602 21.7734 55.4297 20.9648 54.6211C20.3789 54.0234 19.875 53.8594 16.9688 53.3086C14.8125 52.8984 14.2969 52.7695 14.2969 52.6172C14.2969 52.5117 14.8242 49.5938 15.4688 46.125C16.1133 42.6562 16.6406 39.7734 16.6406 39.7148C16.6406 39.6562 16.8398 39.6094 17.0859 39.6094C18.1758 39.6094 19.7461 38.9648 21.0938 37.957C24.082 35.7422 26.6719 31.1836 27.8672 26.0156C28.1719 24.7266 28.6523 21.6562 28.8516 19.8047C29.0508 17.8828 29.0508 10.2305 28.8516 8.64844C28.6875 7.28906 28.5586 6.99609 28.0781 6.75C27.7734 6.59766 16.5 4.33594 16.0312 4.33594C15.9492 4.33594 15.7031 4.44141 15.5039 4.57031ZM21.6445 7.93359L26.3555 8.84766L26.4492 9.60938C26.4961 10.0312 26.543 12.1875 26.543 14.4141C26.5312 17.5078 26.4844 18.8555 26.332 20.1562C26.1094 21.9961 25.6289 24.8672 25.4297 25.5703L25.3008 26.0156H18.2227H11.1328V25.4414C11.1328 22.6758 12.5156 17.0742 14.3555 12.4102C15.0234 10.7109 16.7344 7.03125 16.8633 7.03125C16.8984 7.01953 19.0547 7.42969 21.6445 7.93359ZM24.4922 28.582C24.4922 28.793 23.7656 30.4219 23.2148 31.4414C21.2812 35.0273 18.7852 37.1484 16.5117 37.1484C13.8867 37.1484 11.7891 33.9609 11.2031 29.0859L11.1211 28.4766H17.8125C21.4805 28.4766 24.4922 28.5234 24.4922 28.582ZM12.6914 55.0195C16.1719 55.6875 19.0781 56.2969 19.1719 56.3789C19.5352 56.6719 19.2773 57.5391 18.832 57.5391C18.375 57.5391 5.80078 55.0547 5.66016 54.9375C5.44922 54.7617 5.47266 54.1406 5.69531 53.8828C5.8125 53.7656 5.98828 53.6953 6.14062 53.7305C6.28125 53.7656 9.22266 54.3398 12.6914 55.0195Z" fill="#344E41"/>
<path d="M23.168 11.0626C23.0039 11.215 22.8398 11.5197 22.8047 11.7306C22.7695 11.9533 22.7227 13.8517 22.6875 15.9611L22.6289 19.7814L22.9219 20.0744C23.3203 20.4728 23.7773 20.5665 24.3047 20.3439C25.0664 20.0275 25.1016 19.7931 25.1719 15.5275C25.2188 12.1994 25.207 11.7189 25.0313 11.3908C24.7969 10.9337 24.5273 10.7814 23.9297 10.7814C23.6133 10.7814 23.3789 10.8634 23.168 11.0626Z" fill="#344E41"/>
<path d="M22.7695 22.7578C21.6796 23.0507 21.6093 24.5859 22.6757 25.0312C23.4492 25.3476 24.3749 24.75 24.3749 23.9062C24.3749 23.6601 23.9882 22.8515 23.8828 22.8515C23.8593 22.8515 23.6835 22.8046 23.496 22.7578C23.2968 22.6992 22.9804 22.6992 22.7695 22.7578Z" fill="#344E41"/>
<path d="M37.6758 5.49609C34.5234 6.12891 31.8398 6.67969 31.7344 6.72656C31.3008 6.92578 31.1484 7.39453 30.9844 9.07031C30.7617 11.3438 30.7734 17.0156 30.9961 19.4648C31.4883 24.7148 32.3789 28.3945 33.9961 31.7578C35.0156 33.8789 36.0352 35.3438 37.4883 36.7969C39.2227 38.5195 40.8398 39.4219 42.4805 39.5742L43.1953 39.6445L44.4492 46.1016C45.1406 49.6523 45.7031 52.6172 45.7031 52.6875C45.7031 52.7461 44.5078 53.0391 43.043 53.3086C41.5664 53.5898 40.207 53.8828 40.0078 53.9648C39.457 54.1875 38.6602 54.9492 38.4258 55.4883C38.1445 56.0859 38.1328 57.3047 38.4023 58.0664C38.6484 58.8047 39.5156 59.6953 40.1484 59.8711C40.4062 59.9414 40.875 60 41.2031 60C42.0937 60 54.832 57.4922 55.3945 57.1992C55.9336 56.9297 56.5664 56.2617 56.7891 55.7109C56.8828 55.4883 56.9531 55.0078 56.9531 54.6328C56.9531 52.6406 55.7344 51.2695 53.9648 51.2812C53.6484 51.2812 52.2305 51.5156 50.8242 51.7852C49.418 52.0664 48.2461 52.2773 48.2227 52.2539C48.1992 52.2188 47.6016 49.2773 46.9102 45.7031L45.6328 39.1992L46.2773 38.8477C47.1914 38.3672 48.457 37.043 49.1719 35.8359C49.8633 34.6641 50.625 32.5078 50.9414 30.8203C51.1055 29.9297 51.1523 29.0859 51.1523 26.6602C51.1523 24.0117 51.1172 23.4258 50.8945 22.1719C49.957 17.0508 47.8594 10.8516 45.4922 6.28125C45.0586 5.44922 44.5898 4.69922 44.4609 4.60547C44.3203 4.51172 44.0273 4.41797 43.8164 4.39453C43.5937 4.37109 40.8398 4.86328 37.6758 5.49609ZM43.8633 8.63672C45.75 12.6094 47.2383 16.8867 48.1055 20.8828C48.2695 21.6445 48.3984 22.3125 48.3984 22.3828C48.3984 22.4648 45.9844 22.5 41.1328 22.5H33.8672L33.8086 22.2305C33.7031 21.7383 33.5273 20.0977 33.3867 18.3516C33.2461 16.5938 33.3047 9.5625 33.457 9.08203C33.5273 8.85938 34.0195 8.74219 38.0625 7.94531C40.5586 7.45312 42.7031 7.05469 42.8437 7.04297C43.043 7.03125 43.2187 7.3125 43.8633 8.63672ZM48.7148 27.2109C48.5977 31.3008 47.707 34.1719 46.0195 35.8945C45.1172 36.8086 44.4727 37.0898 43.2305 37.0898C42.3047 37.0898 42.1641 37.0547 41.2969 36.6328C39.1641 35.5781 36.8437 32.4727 35.4258 28.7812C35.0273 27.7148 34.3359 25.418 34.3359 25.1133C34.3359 24.9844 35.6367 24.9609 41.5547 24.9609H48.7852L48.7148 27.2109ZM54.375 54.0352C54.5391 54.3281 54.5156 54.7969 54.3516 54.9375C54.1992 55.0547 41.625 57.5391 41.168 57.5391C40.7227 57.5391 40.4648 56.6719 40.8281 56.3789C41.0273 56.2148 53.8945 53.6836 54.1172 53.7656C54.1992 53.7891 54.3164 53.918 54.375 54.0352Z" fill="#344E41"/>
<path d="M40.9336 8.90619C40.3008 9.28119 40.2188 10.2656 40.7696 10.8163C40.8867 10.9452 41.2266 11.0624 41.5078 11.0976C41.9414 11.1445 42.082 11.1093 42.3399 10.8867C43.2188 10.1249 42.7266 8.67181 41.6016 8.67181C41.4375 8.67181 41.1446 8.77728 40.9336 8.90619Z" fill="#344E41"/>
<path d="M42.75 13.1834C42 13.6053 42.0117 14.0038 42.9023 16.7928C43.7461 19.453 43.7812 19.5467 44.2031 19.7577C44.8476 20.0975 45.6093 19.8163 45.8906 19.1483C46.0429 18.7967 46.0429 18.6561 45.8671 18.0116C45.4804 16.4647 44.5078 13.6874 44.2617 13.4061C43.9336 13.0311 43.207 12.9256 42.75 13.1834Z" fill="#344E41"/>
</g>
<defs>
<clipPath id="clip0_118_117">
<rect width="60" height="60" fill="white"/>
</clipPath>
</defs>
</svg>
