<svg width="60" height="60" viewBox="0 0 60 60" fill="none" xmlns="http://www.w3.org/2000/svg">
<path d="M42.8203 0.117048C40.8281 0.398298 38.7188 1.12486 37.0547 2.09752C35.4844 3.01158 34.3711 4.01939 32.2149 6.45689C30.8203 8.0272 29.9883 8.28502 25.9571 8.43736C23.2735 8.54283 21.7266 8.69517 21.0117 8.91783C20.5078 9.08189 20.2735 9.43345 20.2735 10.0311C20.2735 10.4413 20.332 10.5819 20.6367 10.828C21.0352 11.1678 21.2461 11.1913 22.5235 11.0272C22.9922 10.9686 23.6602 10.8866 24 10.8397L24.6094 10.7694V12.5272C24.6094 14.5545 24.75 14.3436 23.2852 14.4725C19.9922 14.7889 15.7969 16.5819 13.1719 18.8085L12.5742 19.3241L11.3203 18.0585L10.0547 16.7928L10.9805 16.0663C12.75 14.6717 12.7617 14.66 12.832 14.2499C12.9258 13.8045 12.668 13.2069 12.3164 13.0077C11.8125 12.7499 11.3086 12.867 10.5117 13.4413C3.72658 18.3983 -0.304672 26.7303 0.0351715 35.0975C0.269546 40.7342 2.13283 45.8202 5.58986 50.1913C6.44533 51.2811 8.71877 53.5545 9.80861 54.41C20.0977 62.5194 34.6758 61.6991 43.9336 52.4881C47.918 48.5272 50.4141 43.5936 51.2696 38.0038C51.375 37.371 51.5039 35.5897 51.5625 34.0428C51.7266 29.9413 51.9727 29.1795 53.543 27.785C56.2617 25.3944 57.375 24.0702 58.3477 22.0897C59.5196 19.7225 59.9414 17.9178 59.9297 15.1756C59.9297 12.4686 59.4844 10.6288 58.2539 8.24986C56.1797 4.21861 52.4531 1.35924 47.9297 0.339705C46.793 0.081892 43.9453 -0.0470142 42.8203 0.117048ZM46.4649 2.4608C48.7031 2.78892 50.5196 3.5272 52.4531 4.8983L53.0039 5.29674L51.75 6.55064L50.4844 7.81627L49.7227 7.31236C48.2696 6.36314 46.0781 5.7772 44.3086 5.88267L43.4883 5.92955L43.125 4.58189C42.9141 3.84361 42.7266 3.05845 42.6914 2.85924C42.6328 2.48424 42.6328 2.47252 43.1367 2.42564C44.1914 2.33189 45.668 2.35533 46.4649 2.4608ZM40.4766 3.7733C40.5703 4.11314 40.7813 4.87486 40.9453 5.47252L41.2266 6.53892L40.875 6.69127C40.4063 6.87877 39.2227 7.6522 38.625 8.15611C38.3555 8.37877 37.7227 9.04674 37.2071 9.64439C34.4414 12.8553 32.2852 13.9335 28.043 14.2381L26.9531 14.3202V12.5624V10.8045L27.8672 10.7225C30.9258 10.4764 32.3438 9.82017 34.0547 7.8983C36.2696 5.39049 37.2539 4.58189 39.0586 3.69127C39.6563 3.3983 40.1719 3.16392 40.2188 3.16392C40.2656 3.16392 40.3828 3.44517 40.4766 3.7733ZM55.5469 8.20299C57.0938 10.5702 57.8321 13.4999 57.5977 16.3475L57.5156 17.367L57.1406 17.3085C56.9297 17.2733 56.1563 17.0858 55.418 16.8749L54.0703 16.5116L54.1172 15.6913C54.2227 13.9217 53.6367 11.7186 52.6875 10.3006L52.1836 9.55064L53.4258 8.29674C54.0938 7.60533 54.7031 7.07799 54.7617 7.11314C54.8203 7.1483 55.1719 7.64049 55.5469 8.20299ZM46.9922 8.60142C47.9766 8.94127 49.2305 9.74986 49.8516 10.4295C51.9141 12.7147 52.3477 15.7264 51 18.4335C50.5664 19.3006 50.4024 19.4881 47.5547 22.2069C45.2344 24.4335 44.0742 26.742 43.5938 30.117C43.5235 30.5975 43.418 32.203 43.3594 33.6913C43.2891 35.66 43.1953 36.7264 43.0078 37.617C41.5781 44.6483 36.293 49.9452 29.1797 51.4569C27.4102 51.8436 24.1524 51.8436 22.4063 51.4686C20.707 51.0936 19.6172 50.7186 17.9883 49.9217C14.6485 48.2811 11.7422 45.3631 10.0781 42.0116C9.28127 40.3944 8.91799 39.3514 8.54299 37.617C8.15627 35.8475 8.15627 32.6014 8.54299 30.8202C10.0664 23.6952 15.3399 18.4335 22.3828 16.992C23.2852 16.8045 24.3399 16.7108 26.3086 16.6405C27.7969 16.5819 29.4024 16.4764 29.8828 16.4061C33.586 15.8788 36.0821 14.5077 38.6367 11.5897C39.9844 10.0428 40.5586 9.5272 41.4727 9.03502C43.1485 8.14439 45.2227 7.98033 46.9922 8.60142ZM10.3711 21.6092C8.16799 24.2108 6.38674 28.3241 6.04689 31.6405C6.00002 32.0624 5.94142 32.5428 5.90627 32.7186L5.83595 33.0467H4.10158H2.35548L2.4258 32.367C2.85939 27.5272 4.69923 22.9803 7.68752 19.3358L8.3672 18.5155L9.62111 19.7577L10.8867 21.0116L10.3711 21.6092ZM56.2266 19.5233C56.5547 19.617 56.836 19.7225 56.836 19.7577C56.836 19.7928 56.6602 20.203 56.4375 20.6717C55.7813 22.0897 54.9024 23.2967 53.6367 24.492C51.1055 26.871 50.5547 27.4803 50.1797 28.2538C49.6992 29.2381 49.4766 30.1053 49.3242 31.7225L49.1836 33.0467H47.4258H45.6797L45.7617 31.9569C46.0664 27.7499 47.1563 25.5467 50.2149 22.9217C50.8008 22.4178 51.4453 21.8202 51.6563 21.5858C52.1367 21.0467 53.1094 19.617 53.3086 19.1366L53.461 18.7733L54.5274 19.0545C55.125 19.2186 55.8867 19.4295 56.2266 19.5233ZM5.90627 35.6483C5.9297 35.8006 6.01173 36.3983 6.08205 36.996C6.35158 39.1874 7.2422 41.871 8.40236 43.8983C8.70705 44.4491 9.39845 45.4686 9.91408 46.16L10.875 47.4374L9.64455 48.6444L8.41408 49.8631L7.83986 49.2186C7.51174 48.867 6.8672 47.9881 6.38674 47.285C4.04298 43.7811 2.9297 40.6405 2.40236 35.9999L2.33205 35.3905H4.08986C5.82423 35.3905 5.85939 35.3905 5.90627 35.6483ZM49.1485 35.9999C48.6563 41.0624 47.0039 45.1874 43.9336 49.0194L43.1953 49.9335L41.9414 48.6795L40.6758 47.4256L41.1914 46.828C43.3711 44.2499 45.0821 40.3592 45.4805 36.996C45.6914 35.1795 45.4336 35.3905 47.461 35.3905H49.2071L49.1485 35.9999ZM16.1016 51.5975C18.1289 52.7577 20.8125 53.6483 23.0039 53.9178C24.8203 54.1288 24.6094 53.871 24.6094 55.91V57.6678L24 57.5975C19.0547 57.035 15.375 55.6288 11.7656 52.9335C11.1211 52.453 10.5 51.9491 10.3828 51.8085L10.1485 51.5506L11.3555 50.3436L12.5625 49.1249L13.8399 50.0858C14.5313 50.6014 15.5508 51.2928 16.1016 51.5975ZM41.168 51.8905C37.0781 55.3006 32.6953 57.1405 27.6328 57.5858L26.9531 57.6444V55.8866C26.9531 53.8827 26.7422 54.1288 28.5586 53.9178C31.9219 53.5077 35.9883 51.7264 38.4375 49.5819L38.9649 49.1131L40.2305 50.367L41.4961 51.621L41.168 51.8905Z" fill="#344E41"/>
<path d="M37.4062 16.4062C37.125 16.5351 36.7031 16.793 36.4688 16.9922C36.2344 17.1797 35.918 17.3437 35.7656 17.3437C35.3789 17.3437 34.6875 18.0586 34.6875 18.4453C34.6875 19.8164 36.3047 20.0976 37.7227 18.9844C38.0508 18.7266 38.3906 18.5156 38.4961 18.5156C38.5898 18.5156 38.9414 18.7148 39.2695 18.9726C40.5352 19.9336 41.7539 19.9336 43.0312 18.9844C43.3711 18.7266 43.7109 18.5156 43.8047 18.5156C43.8867 18.5156 44.2266 18.7148 44.5664 18.9726C45.5273 19.6875 46.3125 19.8633 46.9922 19.5117C47.4141 19.2891 47.5781 19.0078 47.5781 18.4922C47.5664 17.918 47.0156 17.3437 46.4648 17.3437C46.3594 17.3437 46.0078 17.1445 45.668 16.8867C45.3281 16.6406 44.8828 16.3828 44.6602 16.3008C43.7227 15.9961 42.5977 16.2539 41.7539 16.9922C41.543 17.1914 41.2734 17.3437 41.168 17.3437C41.0625 17.3437 40.7109 17.1445 40.3828 16.8867C40.0547 16.6406 39.6094 16.3828 39.3867 16.3008C38.7891 16.1016 37.9688 16.1484 37.4062 16.4062Z" fill="#344E41"/>
<path d="M24.0234 24.9724C23.871 25.0427 23.4609 25.3005 23.121 25.5583C22.7812 25.8044 22.3945 26.0153 22.2421 26.0153C21.9257 26.0153 21.5273 26.32 21.3398 26.6833C21.1289 27.1052 21.1875 27.5153 21.5507 27.9138C21.8554 28.2653 21.9609 28.3005 22.5234 28.2888C23.1796 28.2888 23.6835 28.0778 24.3867 27.5271C24.9257 27.1052 25.1601 27.1052 25.664 27.5271C26.4023 28.1247 26.8359 28.2888 27.6562 28.2888C28.4648 28.2888 29.0507 28.0661 29.7421 27.4802C30.1992 27.1052 30.4335 27.1052 30.9375 27.5271C32.2031 28.5583 33.5273 28.6052 34.7812 27.6442C35.121 27.3981 35.496 27.1872 35.6132 27.1872C35.7304 27.1872 36.0351 27.3513 36.2812 27.5505C36.914 28.0544 37.2421 28.2067 37.8632 28.3005C38.8007 28.4411 39.375 27.9958 39.375 27.1286C39.375 26.613 38.8476 26.0153 38.4023 26.0153C38.25 26.0153 37.9101 25.8513 37.664 25.6521C36.9726 25.0896 36.3515 24.8435 35.6015 24.8435C34.7812 24.8435 34.4414 24.9724 33.6796 25.5583C33.3515 25.8044 33.0351 26.0153 32.9765 26.0153C32.9179 26.0153 32.5898 25.8044 32.25 25.5583C31.4648 24.9607 30.9726 24.8083 30.0585 24.8669C29.414 24.9021 29.2148 24.9841 28.6523 25.3708C28.289 25.6286 27.9257 25.8864 27.832 25.9567C27.7148 26.0388 27.5273 25.9567 27.164 25.6872C26.3437 25.0544 25.7929 24.8435 25.0195 24.8552C24.6328 24.8552 24.1875 24.9138 24.0234 24.9724Z" fill="#344E41"/>
<path d="M16.7578 36.2224C16.6054 36.2927 16.1953 36.5505 15.8554 36.8083C15.5156 37.0544 15.1289 37.2653 14.9765 37.2653C14.6601 37.2653 14.2617 37.57 14.0742 37.9333C13.8632 38.3552 13.9218 38.7653 14.2851 39.1638C14.5898 39.5153 14.6953 39.5505 15.2578 39.5388C15.914 39.5388 16.4179 39.3278 17.121 38.7771C17.6601 38.3552 17.8945 38.3552 18.3984 38.7771C19.1367 39.3747 19.5703 39.5388 20.3906 39.5388C21.1992 39.5388 21.7851 39.3161 22.4765 38.7302C22.9335 38.3552 23.1679 38.3552 23.6718 38.7771C24.9375 39.8083 26.2617 39.8552 27.5156 38.8942C27.8554 38.6481 28.2304 38.4372 28.3476 38.4372C28.4648 38.4372 28.7695 38.6013 29.0156 38.8005C29.625 39.281 29.9648 39.445 30.5625 39.5505C31.3007 39.6677 32.1445 39.4216 32.8125 38.8942C33.1289 38.6364 33.4921 38.4372 33.5976 38.4372C33.7148 38.4372 34.0898 38.6481 34.4296 38.8942C35.8593 39.9724 37.3828 39.7263 37.3828 38.4021C37.3828 37.863 36.8671 37.2653 36.4101 37.2653C36.2578 37.2653 35.9179 37.1013 35.6718 36.902C34.9804 36.3395 34.3593 36.0935 33.621 36.0935C32.8359 36.0935 32.3554 36.2692 31.6406 36.8435C31.3476 37.0778 31.0546 37.2653 30.9843 37.2653C30.914 37.2653 30.6445 37.1013 30.3984 36.902C29.707 36.3395 29.0859 36.0935 28.3359 36.0935C27.5156 36.0935 27.1757 36.2224 26.414 36.8083C26.0859 37.0544 25.7695 37.2653 25.7109 37.2653C25.6523 37.2653 25.3242 37.0544 24.9843 36.8083C24.1992 36.2106 23.707 36.0583 22.7929 36.1169C22.1484 36.152 21.9492 36.2341 21.3867 36.6208C21.0234 36.8786 20.6601 37.1364 20.5664 37.2067C20.4492 37.2888 20.2617 37.2067 19.8984 36.9372C19.0781 36.3044 18.5273 36.0935 17.7539 36.1052C17.3671 36.1052 16.9218 36.1638 16.7578 36.2224Z" fill="#344E41"/>
<path d="M15.8789 10.4176C15.4453 10.6051 15.1758 11.0152 15.1758 11.5074C15.1758 11.8942 15.2461 12.0348 15.5742 12.3277C15.9141 12.6324 16.0313 12.6793 16.4531 12.6207C17.0625 12.5387 17.4609 12.1051 17.4609 11.5309C17.4609 10.9918 17.2969 10.7106 16.875 10.4879C16.5 10.3004 16.2305 10.277 15.8789 10.4176Z" fill="#344E41"/>
</svg>
