<svg width="60" height="60" viewBox="0 0 60 60" fill="none" xmlns="http://www.w3.org/2000/svg">
<path d="M42.8202 0.117203C40.828 0.398453 38.7187 1.12502 37.0546 2.09767C35.4843 3.01173 34.371 4.01955 32.2147 6.45705C30.8202 8.02736 29.9882 8.28517 25.9569 8.43752C23.2733 8.54298 21.7265 8.69533 21.0116 8.91798C20.5077 9.08205 20.2733 9.43361 20.2733 10.0313C20.2733 10.4414 20.3319 10.582 20.6366 10.8281C21.0351 11.168 21.246 11.1914 22.5233 11.0274C22.9921 10.9688 23.6601 10.8867 23.9999 10.8399L24.6093 10.7695V12.5274C24.6093 14.5547 24.7499 14.3438 23.2851 14.4727C19.9921 14.7891 15.7968 16.582 13.1718 18.8086L12.5741 19.3242L11.3202 18.0586L10.0546 16.793L10.9804 16.0664C12.7499 14.6719 12.7616 14.6602 12.8319 14.25C12.9257 13.8047 12.6679 13.207 12.3163 13.0078C11.8124 12.75 11.3085 12.8672 10.5116 13.4414C3.72646 18.3984 -0.304794 26.7305 0.0350494 35.0977C0.269424 40.7344 2.13271 45.8203 5.58974 50.1914C6.44521 51.2813 8.71864 53.5547 9.80849 54.4102C20.0976 62.5195 34.6757 61.6992 43.9335 52.4883C47.9179 48.5274 50.414 43.5938 51.2694 38.0039C51.3749 37.3711 51.5038 35.5899 51.5624 34.043C51.7265 29.9414 51.9726 29.1797 53.5429 27.7852C56.2616 25.3945 57.3749 24.0703 58.3476 22.0899C59.5194 19.7227 59.9413 17.918 59.9296 15.1758C59.9296 12.4688 59.4843 10.6289 58.2538 8.25002C56.1796 4.21877 52.453 1.35939 47.9296 0.339859C46.7929 0.0820465 43.9452 -0.0468597 42.8202 0.117203ZM46.4647 2.46095C48.703 2.78908 50.5194 3.52736 52.453 4.89845L53.0038 5.29689L51.7499 6.5508L50.4843 7.81642L49.7226 7.31252C48.2694 6.3633 46.078 5.77736 44.3085 5.88283L43.4882 5.9297L43.1249 4.58205C42.914 3.84377 42.7265 3.05861 42.6913 2.85939C42.6327 2.48439 42.6327 2.47267 43.1366 2.4258C44.1913 2.33205 45.6679 2.35548 46.4647 2.46095ZM40.4765 3.77345C40.5702 4.1133 40.7812 4.87502 40.9452 5.47267L41.2265 6.53908L40.8749 6.69142C40.4062 6.87892 39.2226 7.65236 38.6249 8.15627C38.3554 8.37892 37.7226 9.04689 37.2069 9.64455C34.4413 12.8555 32.2851 13.9336 28.0429 14.2383L26.953 14.3203V12.5625V10.8047L27.8671 10.7227C30.9257 10.4766 32.3436 9.82033 34.0546 7.89845C36.2694 5.39064 37.2538 4.58205 39.0585 3.69142C39.6562 3.39845 40.1718 3.16408 40.2187 3.16408C40.2655 3.16408 40.3827 3.44533 40.4765 3.77345ZM55.5468 8.20314C57.0937 10.5703 57.8319 13.5 57.5976 16.3477L57.5155 17.3672L57.1405 17.3086C56.9296 17.2734 56.1562 17.0859 55.4179 16.875L54.0702 16.5117L54.1171 15.6914C54.2226 13.9219 53.6366 11.7188 52.6874 10.3008L52.1835 9.5508L53.4257 8.29689C54.0937 7.60548 54.703 7.07814 54.7616 7.1133C54.8202 7.14845 55.1718 7.64064 55.5468 8.20314ZM46.9921 8.60158C47.9765 8.94142 49.2304 9.75002 49.8515 10.4297C51.914 12.7149 52.3476 15.7266 50.9999 18.4336C50.5663 19.3008 50.4022 19.4883 47.5546 22.207C45.2343 24.4336 44.0741 26.7422 43.5937 30.1172C43.5233 30.5977 43.4179 32.2031 43.3593 33.6914C43.289 35.6602 43.1952 36.7266 43.0077 37.6172C41.578 44.6484 36.2929 49.9453 29.1796 51.457C27.4101 51.8438 24.1522 51.8438 22.4061 51.4688C20.7069 51.0938 19.6171 50.7188 17.9882 49.9219C14.6483 48.2813 11.7421 45.3633 10.078 42.0117C9.28115 40.3945 8.91786 39.3516 8.54286 37.6172C8.15614 35.8477 8.15614 32.6016 8.54286 30.8203C10.0663 23.6953 15.3397 18.4336 22.3827 16.9922C23.2851 16.8047 24.3397 16.7109 26.3085 16.6406C27.7968 16.582 29.4022 16.4766 29.8827 16.4063C33.5858 15.8789 36.0819 14.5078 38.6366 11.5899C39.9843 10.043 40.5585 9.52736 41.4726 9.03517C43.1483 8.14455 45.2226 7.98048 46.9921 8.60158ZM10.371 21.6094C8.16786 24.2109 6.38661 28.3242 6.04677 31.6406C5.99989 32.0625 5.9413 32.543 5.90614 32.7188L5.83583 33.0469H4.10146H2.35536L2.42567 32.3672C2.85927 27.5274 4.69911 22.9805 7.68739 19.3359L8.36708 18.5156L9.62099 19.7578L10.8866 21.0117L10.371 21.6094ZM56.2265 19.5234C56.5546 19.6172 56.8358 19.7227 56.8358 19.7578C56.8358 19.793 56.6601 20.2031 56.4374 20.6719C55.7812 22.0899 54.9022 23.2969 53.6366 24.4922C51.1054 26.8711 50.5546 27.4805 50.1796 28.2539C49.6991 29.2383 49.4765 30.1055 49.3241 31.7227L49.1835 33.0469H47.4257H45.6796L45.7616 31.957C46.0663 27.75 47.1562 25.5469 50.2147 22.9219C50.8007 22.418 51.4452 21.8203 51.6562 21.5859C52.1366 21.0469 53.1093 19.6172 53.3085 19.1367L53.4608 18.7734L54.5272 19.0547C55.1249 19.2188 55.8866 19.4297 56.2265 19.5234ZM5.90614 35.6484C5.92958 35.8008 6.01161 36.3984 6.08193 36.9961C6.35146 39.1875 7.24208 41.8711 8.40224 43.8984C8.70693 44.4492 9.39833 45.4688 9.91396 46.1602L10.8749 47.4375L9.64443 48.6445L8.41396 49.8633L7.83974 49.2188C7.51161 48.8672 6.86708 47.9883 6.38661 47.2852C4.04286 43.7813 2.92958 40.6406 2.40224 36L2.33192 35.3906H4.08974C5.82411 35.3906 5.85927 35.3906 5.90614 35.6484ZM49.1483 36C48.6562 41.0625 47.0038 45.1875 43.9335 49.0195L43.1952 49.9336L41.9413 48.6797L40.6757 47.4258L41.1913 46.8281C43.371 44.25 45.0819 40.3594 45.4804 36.9961C45.6913 35.1797 45.4335 35.3906 47.4608 35.3906H49.2069L49.1483 36ZM16.1015 51.5977C18.1288 52.7578 20.8124 53.6484 23.0038 53.918C24.8202 54.1289 24.6093 53.8711 24.6093 55.9102V57.668L23.9999 57.5977C19.0546 57.0352 15.3749 55.6289 11.7655 52.9336C11.121 52.4531 10.4999 51.9492 10.3827 51.8086L10.1483 51.5508L11.3554 50.3438L12.5624 49.125L13.8397 50.0859C14.5311 50.6016 15.5507 51.293 16.1015 51.5977ZM41.1679 51.8906C37.078 55.3008 32.6952 57.1406 27.6327 57.5859L26.953 57.6445V55.8867C26.953 53.8828 26.7421 54.1289 28.5585 53.918C31.9218 53.5078 35.9882 51.7266 38.4374 49.582L38.9647 49.1133L40.2304 50.3672L41.496 51.6211L41.1679 51.8906Z" fill="#F4732A"/>
<path d="M37.4062 16.4063C37.125 16.5352 36.7031 16.793 36.4688 16.9922C36.2344 17.1797 35.918 17.3438 35.7656 17.3438C35.3789 17.3438 34.6875 18.0586 34.6875 18.4453C34.6875 19.8164 36.3047 20.0977 37.7227 18.9844C38.0508 18.7266 38.3906 18.5156 38.4961 18.5156C38.5898 18.5156 38.9414 18.7149 39.2695 18.9727C40.5352 19.9336 41.7539 19.9336 43.0312 18.9844C43.3711 18.7266 43.7109 18.5156 43.8047 18.5156C43.8867 18.5156 44.2266 18.7149 44.5664 18.9727C45.5273 19.6875 46.3125 19.8633 46.9922 19.5117C47.4141 19.2891 47.5781 19.0078 47.5781 18.4922C47.5664 17.918 47.0156 17.3438 46.4648 17.3438C46.3594 17.3438 46.0078 17.1445 45.668 16.8867C45.3281 16.6406 44.8828 16.3828 44.6602 16.3008C43.7227 15.9961 42.5977 16.2539 41.7539 16.9922C41.543 17.1914 41.2734 17.3438 41.168 17.3438C41.0625 17.3438 40.7109 17.1445 40.3828 16.8867C40.0547 16.6406 39.6094 16.3828 39.3867 16.3008C38.7891 16.1016 37.9688 16.1484 37.4062 16.4063Z" fill="#F4732A"/>
<path d="M24.0234 24.9727C23.871 25.043 23.4609 25.3008 23.121 25.5586C22.7812 25.8047 22.3945 26.0156 22.2421 26.0156C21.9257 26.0156 21.5273 26.3203 21.3398 26.6836C21.1289 27.1055 21.1875 27.5156 21.5507 27.9141C21.8554 28.2656 21.9609 28.3008 22.5234 28.2891C23.1796 28.2891 23.6835 28.0781 24.3867 27.5274C24.9257 27.1055 25.1601 27.1055 25.664 27.5274C26.4023 28.125 26.8359 28.2891 27.6562 28.2891C28.4648 28.2891 29.0507 28.0664 29.7421 27.4805C30.1992 27.1055 30.4335 27.1055 30.9375 27.5274C32.2031 28.5586 33.5273 28.6055 34.7812 27.6445C35.121 27.3985 35.496 27.1875 35.6132 27.1875C35.7304 27.1875 36.0351 27.3516 36.2812 27.5508C36.914 28.0547 37.2421 28.207 37.8632 28.3008C38.8007 28.4414 39.375 27.9961 39.375 27.1289C39.375 26.6133 38.8476 26.0156 38.4023 26.0156C38.25 26.0156 37.9101 25.8516 37.664 25.6524C36.9726 25.0899 36.3515 24.8438 35.6015 24.8438C34.7812 24.8438 34.4414 24.9727 33.6796 25.5586C33.3515 25.8047 33.0351 26.0156 32.9765 26.0156C32.9179 26.0156 32.5898 25.8047 32.25 25.5586C31.4648 24.961 30.9726 24.8086 30.0585 24.8672C29.414 24.9024 29.2148 24.9844 28.6523 25.3711C28.289 25.6289 27.9257 25.8867 27.832 25.9571C27.7148 26.0391 27.5273 25.9571 27.164 25.6875C26.3437 25.0547 25.7929 24.8438 25.0195 24.8555C24.6328 24.8555 24.1875 24.9141 24.0234 24.9727Z" fill="#F4732A"/>
<path d="M16.7578 36.2227C16.6054 36.293 16.1953 36.5508 15.8554 36.8086C15.5156 37.0547 15.1289 37.2656 14.9765 37.2656C14.6601 37.2656 14.2617 37.5703 14.0742 37.9336C13.8632 38.3555 13.9218 38.7656 14.2851 39.1641C14.5898 39.5156 14.6953 39.5508 15.2578 39.5391C15.914 39.5391 16.4179 39.3281 17.121 38.7774C17.6601 38.3555 17.8945 38.3555 18.3984 38.7774C19.1367 39.375 19.5703 39.5391 20.3906 39.5391C21.1992 39.5391 21.7851 39.3164 22.4765 38.7305C22.9335 38.3555 23.1679 38.3555 23.6718 38.7774C24.9375 39.8086 26.2617 39.8555 27.5156 38.8945C27.8554 38.6485 28.2304 38.4375 28.3476 38.4375C28.4648 38.4375 28.7695 38.6016 29.0156 38.8008C29.625 39.2813 29.9648 39.4453 30.5625 39.5508C31.3007 39.668 32.1445 39.4219 32.8125 38.8945C33.1289 38.6367 33.4921 38.4375 33.5976 38.4375C33.7148 38.4375 34.0898 38.6485 34.4296 38.8945C35.8593 39.9727 37.3828 39.7266 37.3828 38.4024C37.3828 37.8633 36.8671 37.2656 36.4101 37.2656C36.2578 37.2656 35.9179 37.1016 35.6718 36.9024C34.9804 36.3399 34.3593 36.0938 33.621 36.0938C32.8359 36.0938 32.3554 36.2695 31.6406 36.8438C31.3476 37.0781 31.0546 37.2656 30.9843 37.2656C30.914 37.2656 30.6445 37.1016 30.3984 36.9024C29.707 36.3399 29.0859 36.0938 28.3359 36.0938C27.5156 36.0938 27.1757 36.2227 26.414 36.8086C26.0859 37.0547 25.7695 37.2656 25.7109 37.2656C25.6523 37.2656 25.3242 37.0547 24.9843 36.8086C24.1992 36.2109 23.707 36.0586 22.7929 36.1172C22.1484 36.1524 21.9492 36.2344 21.3867 36.6211C21.0234 36.8789 20.6601 37.1367 20.5664 37.207C20.4492 37.2891 20.2617 37.207 19.8984 36.9375C19.0781 36.3047 18.5273 36.0938 17.7539 36.1055C17.3671 36.1055 16.9218 36.1641 16.7578 36.2227Z" fill="#F4732A"/>
<path d="M15.8789 10.418C15.4453 10.6055 15.1758 11.0156 15.1758 11.5078C15.1758 11.8946 15.2461 12.0352 15.5742 12.3281C15.9141 12.6328 16.0313 12.6797 16.4531 12.6211C17.0625 12.5391 17.4609 12.1055 17.4609 11.5313C17.4609 10.9922 17.2969 10.711 16.875 10.4883C16.5 10.3008 16.2305 10.2774 15.8789 10.418Z" fill="#F4732A"/>
</svg>
