<svg width="60" height="60" viewBox="0 0 60 60" fill="none" xmlns="http://www.w3.org/2000/svg">
<path d="M0.597645 0.164062C-1.17123e-05 0.492188 0.011707 0.328125 0.011707 8.49609C-1.17021e-05 17.0508 -1.17123e-05 17.0625 0.820301 18.7266C1.39452 19.875 2.5078 21.0586 3.60936 21.6797L4.33593 22.0898L4.35936 39.7266L4.39452 57.3633L4.64061 57.9023C5.00389 58.6758 5.55468 59.2383 6.30468 59.6133C6.85546 59.8828 7.12499 59.9414 7.85155 59.9414C9.31639 59.9414 10.4531 59.2148 11.0625 57.9023L11.3086 57.3633L11.3437 39.7266L11.3789 22.0898L12.1055 21.6797C13.1953 21.0586 14.3086 19.875 14.8828 18.7266C15.7031 17.0625 15.7031 17.0391 15.7031 8.51953C15.7031 0.28125 15.7148 0.433594 15.0586 0.140625C14.6719 -0.0351562 14.3906 -0.0351562 14.0039 0.140625C13.3594 0.433594 13.3594 0.375 13.3594 7.38281V13.8281H12.3047H11.25V7.38281C11.25 2.64844 11.2148 0.867188 11.1094 0.644531C10.957 0.304688 10.4648 0 10.0781 0C9.69139 0 9.19921 0.304688 9.04686 0.644531C8.94139 0.867188 8.90624 2.64844 8.90624 7.38281V13.8281H7.85155H6.79686V7.38281C6.79686 2.64844 6.76171 0.867188 6.65624 0.644531C6.41014 0.09375 5.6953 -0.140625 5.09764 0.140625C4.45311 0.433594 4.45311 0.375 4.45311 7.38281V13.8281H3.39843H2.34374V7.38281C2.34374 2.64844 2.30858 0.867188 2.20311 0.644531C1.9453 0.0820312 1.17186 -0.152344 0.597645 0.164062ZM13.207 16.5703C13.0078 17.8242 11.6601 19.4062 10.3594 19.9102C9.98436 20.0625 9.52733 20.332 9.35155 20.5195L9.02343 20.8594V38.8008C9.02343 58.3008 9.05858 57.2109 8.37889 57.5156C7.99218 57.6914 7.71093 57.6914 7.32421 57.5156C6.64452 57.2109 6.67968 58.3008 6.67968 38.8008V20.8828L6.37499 20.5195C6.21093 20.3203 6.01171 20.1562 5.92968 20.1562C5.56639 20.1562 4.33593 19.4062 3.78514 18.8555C3.16405 18.2344 2.60155 17.2383 2.49608 16.5703L2.42577 16.1719H7.85155H13.2773L13.207 16.5703Z" fill="#344E41"/>
<path d="M57.8203 0.457031C56.7539 1.17188 55.2422 2.53125 54.2344 3.67969C51.7617 6.46875 50.0625 9.96094 49.3125 13.7344C49.0547 15.0234 49.0547 15.3164 49.0078 24.1523C48.9727 34.1953 48.9609 34.0664 49.6992 35.5312C49.9688 36.0586 50.4727 36.6797 51.5156 37.7344L52.9688 39.2109L52.9922 48.293C53.0273 57.2344 53.0273 57.375 53.2734 57.9023C53.6367 58.6758 54.1875 59.2383 54.9375 59.6133C55.4883 59.8828 55.7578 59.9414 56.4844 59.9414C57.9492 59.9414 59.0859 59.2148 59.6953 57.9023L59.9414 57.3633L59.9766 29.1797C60 8.09766 59.9648 0.914062 59.8711 0.667969C59.7188 0.304688 59.2266 0 58.793 0C58.6289 0 58.1953 0.210938 57.8203 0.457031ZM57.5273 56.9883C57.375 57.3398 56.8828 57.6562 56.4844 57.6562C56.1445 57.6562 55.5938 57.3516 55.4766 57.1055C55.418 56.9883 55.3477 52.6875 55.3125 47.5547L55.2539 38.2148L53.6016 36.5391C52.5234 35.4375 51.8555 34.6641 51.668 34.2773L51.3867 33.6914L51.3516 25.0898C51.3281 17.9648 51.3516 16.2422 51.5039 15.1289C52.0195 11.1094 53.8125 7.41797 56.6016 4.58203L57.5977 3.57422L57.6328 30.1172C57.6563 49.9219 57.6211 56.7422 57.5273 56.9883Z" fill="#344E41"/>
<path d="M27.4219 7.74609C25.2656 7.99219 22.6055 8.74219 20.6836 9.65625C19.5117 10.207 19.2188 10.5 19.2188 11.1094C19.2188 11.6484 19.7578 12.1875 20.2852 12.1875C20.4961 12.1875 21.3516 11.9062 22.1953 11.5547C25.5938 10.1367 29.0625 9.66797 32.6133 10.1367C36.8672 10.6992 40.5117 12.4219 43.6992 15.4102C44.8008 16.4297 44.9297 16.5234 45.3633 16.5234C46.043 16.5234 46.5234 16.0312 46.5234 15.3398C46.5234 14.8828 46.4648 14.7891 45.6445 13.9922C42 10.4531 37.3945 8.29688 32.3203 7.74609C31.0078 7.59375 28.7109 7.60547 27.4219 7.74609Z" fill="#344E41"/>
<path d="M28.3007 13.4297C25.7343 13.7109 22.8867 14.7656 20.6367 16.2656C19.3242 17.1328 17.1328 19.3242 16.2656 20.625C15 22.5352 14.1679 24.4922 13.6875 26.707C13.3242 28.3125 13.3359 31.6641 13.6875 33.293C15.1406 39.9375 20.0976 44.8828 26.7539 46.3125C28.4648 46.6758 31.5351 46.6758 33.2343 46.3125C34.9453 45.9492 36.0937 45.5391 37.6289 44.7422C42.0937 42.457 45.2226 38.3086 46.3125 33.2461C46.6523 31.6523 46.6758 28.582 46.3593 27.0117C45.3164 21.7383 42.0468 17.4258 37.3242 15.082C35.0976 13.9805 33.0586 13.4883 30.4687 13.418C29.5312 13.3945 28.5586 13.4062 28.3007 13.4297ZM32.1211 15.8789C36.7031 16.5703 40.6875 19.4648 42.8086 23.6719C43.3945 24.8437 43.9218 26.5078 44.1211 27.8789C45.2929 35.6484 39.9023 42.9492 32.1093 44.1328C25.9336 45.0586 19.8164 41.8008 17.1093 36.1523C13.9101 29.4609 16.3593 21.5156 22.7929 17.6719C25.5117 16.043 28.9101 15.3867 32.1211 15.8789Z" fill="#344E41"/>
<path d="M29.4609 19.3359C29.0742 19.4883 28.8281 19.9218 28.8281 20.4258C28.8281 21.5976 30.4688 21.9961 31.0078 20.9648C31.5352 19.9336 30.5391 18.8906 29.4609 19.3359Z" fill="#344E41"/>
<path d="M25.1484 20.4024C22.0312 21.9727 19.8281 25.0664 19.3476 28.5352C19.1367 30.0586 19.1601 30.3164 19.6172 30.7734C20.0625 31.2188 20.4375 31.2773 20.9648 30.9961C21.375 30.7852 21.5039 30.4453 21.6562 29.1094C21.7969 27.8789 22.1953 26.6367 22.7578 25.6875C23.3437 24.6797 24.8555 23.2383 25.957 22.6289C26.4726 22.336 26.9883 22.0313 27.0937 21.9375C27.3984 21.6797 27.4805 21.0703 27.2578 20.6485C26.8828 19.9336 26.2148 19.8516 25.1484 20.4024Z" fill="#344E41"/>
<path d="M46.2656 42.0471C46.1601 42.094 45.4453 42.7854 44.6953 43.5822C41.6601 46.758 38.6133 48.5393 34.5351 49.5119C29.6601 50.6721 24.2695 49.8635 19.9804 47.3439C19.3242 46.9572 18.7851 46.7229 18.5508 46.7229C17.7422 46.6994 17.1562 47.5432 17.4609 48.2932C17.6484 48.7268 18.2929 49.1604 19.9804 50.0041C29.4258 54.7385 40.8984 52.2189 47.4961 43.969C47.6953 43.7111 47.8125 43.4182 47.8125 43.1721C47.8125 42.4455 46.8867 41.7775 46.2656 42.0471Z" fill="#344E41"/>
<path d="M14.4257 43.992C14.2734 44.074 14.0742 44.2732 13.9922 44.4256C13.3359 45.6092 14.8828 46.7811 15.832 45.8318C16.7812 44.8826 15.6093 43.3357 14.4257 43.992Z" fill="#344E41"/>
</svg>
