<svg width="23" height="23" viewBox="0 0 23 23" fill="none" xmlns="http://www.w3.org/2000/svg">
<path d="M18.1774 14.2474C17.7065 13.7571 17.1385 13.495 16.5366 13.495C15.9395 13.495 15.3667 13.7523 14.8764 14.2425L13.3425 15.7716C13.2163 15.7037 13.0901 15.6406 12.9687 15.5775C12.7939 15.4901 12.6289 15.4076 12.4881 15.3202C11.0512 14.4076 9.74543 13.2183 8.49302 11.6795C7.88623 10.9125 7.47847 10.2669 7.18236 9.61153C7.58041 9.24745 7.94934 8.86882 8.30856 8.50475C8.44448 8.36882 8.5804 8.22805 8.71632 8.09213C9.73573 7.07272 9.73573 5.75235 8.71632 4.73295L7.39109 3.40772C7.24061 3.25724 7.08527 3.1019 6.93964 2.94656C6.64839 2.6456 6.34256 2.33492 6.02703 2.04366C5.55617 1.57765 4.99307 1.33008 4.40084 1.33008C3.80862 1.33008 3.23581 1.57765 2.75038 2.04366C2.74552 2.04852 2.74552 2.04852 2.74067 2.05337L1.0902 3.7184C0.468854 4.33975 0.114489 5.09702 0.0368205 5.97565C-0.0796829 7.39311 0.337787 8.71348 0.658172 9.57755C1.44457 11.6989 2.61931 13.6649 4.37172 15.7716C6.4979 18.3104 9.05612 20.3153 11.9784 21.7279C13.0949 22.257 14.5852 22.8832 16.2502 22.99C16.3521 22.9949 16.4589 22.9997 16.556 22.9997C17.6774 22.9997 18.6191 22.5968 19.357 21.7958C19.3618 21.7861 19.3715 21.7813 19.3764 21.7716C19.6288 21.4657 19.9201 21.1891 20.2259 20.8929C20.4346 20.6939 20.6482 20.4852 20.8569 20.2667C21.3375 19.7667 21.5899 19.1842 21.5899 18.5871C21.5899 17.9852 21.3327 17.4075 20.8424 16.9221L18.1774 14.2474ZM19.9152 19.359C19.9104 19.359 19.9104 19.3638 19.9152 19.359C19.7259 19.5629 19.5317 19.7473 19.323 19.9512C19.0075 20.2522 18.6871 20.5677 18.3861 20.9221C17.8958 21.4463 17.3182 21.6939 16.5609 21.6939C16.4881 21.6939 16.4104 21.6939 16.3376 21.689C14.8959 21.5968 13.5561 21.0337 12.5512 20.5531C9.80369 19.2231 7.3911 17.3347 5.38627 14.9416C3.73095 12.9464 2.62417 11.1018 1.89117 9.12124C1.43972 7.91252 1.27467 6.97078 1.34748 6.08245C1.39603 5.51449 1.61447 5.04362 2.01738 4.64072L3.6727 2.9854C3.91056 2.7621 4.16298 2.64074 4.41055 2.64074C4.71637 2.64074 4.96394 2.82521 5.11928 2.98054C5.12413 2.9854 5.12899 2.99025 5.13384 2.99511C5.42996 3.2718 5.7115 3.55821 6.00762 3.86403C6.1581 4.01937 6.31344 4.1747 6.46878 4.3349L7.794 5.66012C8.30856 6.17468 8.30856 6.6504 7.794 7.16496C7.65323 7.30573 7.51731 7.44651 7.37653 7.58243C6.96877 7.9999 6.58043 8.38824 6.1581 8.76688C6.14839 8.77659 6.13868 8.78144 6.13383 8.79115C5.71636 9.20862 5.79403 9.61638 5.88141 9.89308C5.88626 9.90764 5.89111 9.9222 5.89597 9.93677C6.24062 10.7717 6.72605 11.5581 7.46391 12.495L7.46876 12.4998C8.80855 14.1503 10.2212 15.4367 11.7794 16.4221C11.9784 16.5483 12.1823 16.6503 12.3765 16.7474C12.5512 16.8347 12.7163 16.9173 12.857 17.0046C12.8765 17.0143 12.8959 17.0289 12.9153 17.0386C13.0803 17.1211 13.2357 17.16 13.3959 17.16C13.7988 17.16 14.0512 16.9076 14.1337 16.825L15.7939 15.1649C15.9589 14.9998 16.2211 14.8008 16.5269 14.8008C16.8279 14.8008 17.0754 14.9901 17.2259 15.1551C17.2308 15.16 17.2308 15.16 17.2356 15.1649L19.9104 17.8396C20.4103 18.3347 20.4103 18.8444 19.9152 19.359Z" fill="#F4732A"/>
<path d="M12.4298 5.47141C13.7016 5.685 14.857 6.28693 15.7793 7.20925C16.7016 8.13157 17.2987 9.28689 17.5171 10.5587C17.5705 10.8791 17.8472 11.1024 18.1627 11.1024C18.2016 11.1024 18.2355 11.0975 18.2744 11.0927C18.6336 11.0344 18.8715 10.6946 18.8132 10.3354C18.5511 8.79661 17.8229 7.39371 16.7113 6.28208C15.5997 5.17044 14.1968 4.44229 12.658 4.18016C12.2987 4.12191 11.9638 4.35977 11.9007 4.71413C11.8376 5.0685 12.0706 5.41315 12.4298 5.47141Z" fill="#F4732A"/>
<path d="M22.9734 10.1458C22.5414 7.61183 21.3472 5.30604 19.5123 3.47111C17.6773 1.63618 15.3716 0.442024 12.8376 0.00999088C12.4832 -0.0531151 12.1483 0.1896 12.0852 0.543965C12.0269 0.903183 12.2648 1.23813 12.624 1.30124C14.8861 1.68473 16.9492 2.75753 18.59 4.39343C20.2307 6.03418 21.2987 8.09727 21.6821 10.3594C21.7355 10.6798 22.0122 10.9031 22.3278 10.9031C22.3666 10.9031 22.4006 10.8982 22.4394 10.8933C22.7938 10.8399 23.0365 10.5001 22.9734 10.1458Z" fill="#F4732A"/>
</svg>
