<svg width="40" height="40" viewBox="0 0 40 40" fill="none" xmlns="http://www.w3.org/2000/svg">
<path d="M1.875 0.726562C1.49219 0.851562 0.835938 1.52344 0.71875 1.92188C0.585937 2.36719 0.585937 7.625 0.71875 8.0625C0.835938 8.45312 1.3125 9 1.69531 9.17969C1.85938 9.25781 2 9.32812 2.00781 9.33594C2.02344 9.34375 1.875 9.69531 1.6875 10.125C1.03906 11.6016 0.726563 12.9297 0.648438 14.5312C0.539062 16.9531 1.10156 19.6484 2.21875 21.9922C2.78125 23.1719 3.14063 23.7344 5.125 26.4844L6.83594 28.8672L6.88281 31.8359C6.92188 34.7891 6.92188 34.8047 7.13281 35.4297C7.42969 36.3281 7.84375 36.9844 8.55469 37.6953C9.26563 38.4062 9.92188 38.8203 10.8203 39.1172C11.375 39.2969 11.5703 39.3203 12.5 39.3203C13.4297 39.3203 13.625 39.2969 14.1797 39.1172C15.0781 38.8203 15.7344 38.4062 16.4453 37.6953C17.1563 36.9844 17.5703 36.3281 17.8672 35.4297C18.0781 34.8047 18.0781 34.7891 18.1172 31.8359L18.1641 28.8672L19.5625 26.9219L20.9609 24.9766L21.1328 25.4922C21.9688 27.9609 23.8594 30.0312 26.2344 31.0625L26.8359 31.3203L26.875 34.4297L26.9141 37.5391L27.125 37.9375C27.4375 38.5312 27.6719 38.7734 28.2188 39.0703L28.7109 39.3359H30H31.2891L31.7813 39.0703C32.3281 38.7734 32.5625 38.5312 32.875 37.9375L33.0859 37.5391L33.125 34.4297L33.1641 31.3203L33.7578 31.0703C36.1797 30.0156 38.0859 27.9141 38.8984 25.3984C39.2422 24.3438 39.3359 23.7266 39.3359 22.5C39.3359 21.2734 39.2422 20.6562 38.8984 19.5938C38.1406 17.25 36.4063 15.2422 34.1563 14.1094C32.8438 13.4531 31.5859 13.1641 30 13.1641C28.0391 13.1641 26.5313 13.6016 24.9141 14.6484L24.3984 14.9844L24.3438 14.2266C24.2344 12.6953 23.8125 11.1406 23.1172 9.75L22.7422 8.99219L23.4531 8.36719C23.8438 8.01562 24.1953 7.73438 24.2344 7.73438C24.2734 7.73438 24.4531 7.8125 24.6328 7.89844C25.1172 8.14844 25.7891 8.17969 26.3984 7.96875L26.8984 7.80469L27.6016 8.5C28.2969 9.19531 28.3047 9.20312 28.2109 9.45312C27.8281 10.5625 28.7969 11.875 30 11.875C30.4922 11.875 30.8906 11.6953 31.2891 11.2891C31.8359 10.75 32.0078 10.0938 31.7891 9.45312L31.6953 9.20312L32.5781 8.32031L33.4531 7.44531L33.8594 7.66406C35.2969 8.44531 37.0078 8.20312 38.2109 7.05469C39.75 5.59375 39.75 3.15625 38.2109 1.69531C36.7266 0.273438 34.5234 0.273438 33.0391 1.69531C31.8203 2.85156 31.5313 4.66406 32.3359 6.14062L32.5547 6.54688L31.6797 7.42188L30.7969 8.30469L30.5469 8.21094C30.2188 8.10156 29.7813 8.10156 29.4531 8.21094C29.2031 8.30469 29.1953 8.29688 28.5 7.60156L27.8047 6.89844L27.9688 6.39844C28.1875 5.77344 28.1484 5.10938 27.8594 4.54688C27.5703 3.97656 27.3281 3.72656 26.7813 3.42969C26.3281 3.1875 26.2344 3.16406 25.625 3.17188C25.0859 3.17188 24.8906 3.21094 24.5703 3.35938C23.4609 3.89844 22.9063 5.13281 23.2422 6.29688L23.375 6.75781L22.9609 7.13281C22.7266 7.34375 22.4219 7.60156 22.2813 7.71094L22.0313 7.90625L21.8594 7.6875C21.4688 7.17188 20.2344 5.96875 19.6484 5.53906C18.0391 4.32812 15.8594 3.4375 14.0859 3.24219C13.0547 3.13281 13.125 3.17188 13.125 2.67969C13.125 2.4375 13.0859 2.10156 13.0313 1.92188C12.9063 1.49219 12.2578 0.84375 11.8281 0.71875C11.3984 0.59375 2.28125 0.601562 1.875 0.726562ZM11.6797 2.07031L11.875 2.25781V5V7.74219L11.6797 7.92969C11.5078 8.10938 11.4297 8.125 10.75 8.125H10.0078L9.98438 9.35156C9.96875 10.2188 9.9375 10.5859 9.86719 10.6016C9.8125 10.625 9.52344 10.1328 9.14063 9.38281L8.51563 8.125H5.38281H2.25781L2.07031 7.92969L1.875 7.74219V5V2.25781L2.07031 2.07031L2.25781 1.875H6.875H11.4922L11.6797 2.07031ZM36.8047 2.19531C37.3281 2.47656 37.5703 2.72656 37.875 3.3125C38.0469 3.64844 38.0781 3.8125 38.0781 4.375C38.0859 4.98438 38.0625 5.07812 37.8203 5.53125C37.5234 6.07812 37.2734 6.3125 36.6875 6.625C36.3516 6.79688 36.1875 6.82812 35.625 6.82812C35.0625 6.82812 34.8984 6.79688 34.5625 6.625C33.9766 6.3125 33.7266 6.07812 33.4297 5.53125C33.1875 5.07812 33.1641 4.98438 33.1719 4.375C33.1719 3.59375 33.3594 3.125 33.8672 2.61719C34.6484 1.83594 35.8125 1.67188 36.8047 2.19531ZM14.4844 4.57812C16.9063 5.03906 19.2734 6.45312 20.8125 8.375L21.1016 8.74219L20.7734 9.03906C20.5938 9.20312 20.3906 9.375 20.3281 9.42188C20.2188 9.5 20.2578 9.57812 20.6172 9.99219L21.0313 10.4688L21.3906 10.1562C21.5938 9.98438 21.7813 9.875 21.8203 9.91406C21.9453 10.0391 22.5078 11.4297 22.7031 12.0938C22.9844 13.0625 23.1484 14.3438 23.1094 15.3281C23.0859 16.0469 23.0625 16.1953 22.9063 16.3828C21.7734 17.8125 21.1563 19.0625 20.8125 20.6406C20.7422 20.9531 20.6719 21.6875 20.6484 22.2656L20.6094 23.3203L18.8906 25.7188L17.1797 28.125H15.7813H14.375V25.625V23.125H16.875H19.375V16.875V10.625H17.5H15.625V15.625V20.625H16.25H16.875V16.25V11.875H17.5H18.125V16.875V21.875H15.625H13.125V25V28.125H12.5H11.875V25V21.875H9.375H6.875V19.375V16.875H7.5H8.125V18.75V20.625H8.75H9.375V18.125V15.625H7.5H5.625V19.375V23.125H8.125H10.625V25.625V28.125H9.21875H7.82031L6.1875 25.8359C4.15625 23 3.92969 22.6484 3.35156 21.4609C2.60156 19.9062 2.14844 18.3125 1.96094 16.5469C1.70313 14.2266 2.07031 12.0859 3.0625 10.1484L3.45313 9.375H5.59375H7.72656L8.25 10.3984C8.66406 11.2188 8.82031 11.4531 9.0625 11.6094C9.79688 12.1016 10.75 11.8438 11.1016 11.0625C11.2031 10.8281 11.25 10.5547 11.25 10.0547C11.25 9.47656 11.2656 9.375 11.375 9.375C11.9766 9.375 12.8516 8.6875 13.0313 8.07812C13.0938 7.86719 13.125 7.16406 13.125 6.07031V4.375L13.5 4.42188C13.7031 4.44531 14.1406 4.51562 14.4844 4.57812ZM26.1172 4.48438C26.9219 4.82031 27.1172 5.86719 26.4922 6.49219C25.6172 7.375 24.1797 6.58594 24.4063 5.35156C24.5469 4.61719 25.4063 4.17969 26.1172 4.48438ZM30.4297 9.57031C30.5547 9.6875 30.625 9.85156 30.625 10C30.625 10.1484 30.5547 10.3125 30.4297 10.4297C30.3125 10.5547 30.1484 10.625 30 10.625C29.8516 10.625 29.6875 10.5547 29.5703 10.4297C29.4453 10.3125 29.375 10.1484 29.375 10C29.375 9.85156 29.4453 9.6875 29.5703 9.57031C29.6875 9.44531 29.8516 9.375 30 9.375C30.1484 9.375 30.3125 9.44531 30.4297 9.57031ZM31.1406 14.4609C32.3359 14.625 33.7266 15.1797 34.7266 15.8984C35.2578 16.2734 36.3281 17.3594 36.6875 17.8906C37.8516 19.5859 38.3359 21.7656 38.0078 23.7891C37.7188 25.5625 36.9063 27.0859 35.5625 28.375C34.8516 29.0547 34.4688 29.3281 33.6719 29.7266C30.9141 31.1172 27.6719 30.8594 25.2266 29.0547C24.6484 28.625 23.6719 27.6406 23.3047 27.1016C21.9219 25.0938 21.5156 22.4297 22.2422 20.1172C22.6641 18.7656 23.3438 17.6797 24.3828 16.6797C25.1484 15.9453 25.5234 15.6719 26.375 15.25C27.8594 14.5 29.5 14.2344 31.1406 14.4609ZM16.875 30V30.625H12.5H8.125V30V29.375H12.5H16.875V30ZM30 31.8359C30.4922 31.8359 31.1172 31.8047 31.3906 31.7734L31.8828 31.7109L31.8594 34.5234C31.8359 37.2188 31.8281 37.3438 31.6719 37.5469C31.3047 38.0469 31.1797 38.0859 30 38.0859C28.8203 38.0859 28.6953 38.0469 28.3281 37.5469C28.1719 37.3438 28.1641 37.2188 28.1406 34.5234L28.1172 31.7109L28.6094 31.7734C28.8828 31.8047 29.5078 31.8359 30 31.8359ZM16.875 32.5V33.125H12.5H8.125V32.5V31.875H12.5H16.875V32.5ZM16.7969 34.4844C16.7969 34.7656 16.4531 35.6406 16.1797 36.0703C15.6016 36.9688 14.8047 37.5859 13.75 37.9375C13.1563 38.1406 11.8438 38.1406 11.25 37.9375C9.85938 37.4688 8.8125 36.4531 8.36719 35.1406C8.07813 34.2891 7.59375 34.375 12.5 34.375C16.125 34.375 16.7969 34.3906 16.7969 34.4844Z" fill="#F4732A"/>
<path d="M3.125 3.75V4.375H4.375H5.625V3.75V3.125H4.375H3.125V3.75Z" fill="#F4732A"/>
<path d="M6.875 3.75V4.375H8.75H10.625V3.75V3.125H8.75H6.875V3.75Z" fill="#F4732A"/>
<path d="M3.125 6.25V6.875H4.375H5.625V6.25V5.625H4.375H3.125V6.25Z" fill="#F4732A"/>
<path d="M6.875 6.25V6.875H7.5H8.125V6.25V5.625H7.5H6.875V6.25Z" fill="#F4732A"/>
<path d="M9.375 6.25V6.875H10H10.625V6.25V5.625H10H9.375V6.25Z" fill="#F4732A"/>
<path d="M10.625 16.875V20.625H11.25H11.875V17.5V14.375H12.5H13.125V17.5V20.625H13.75H14.375V16.875V13.125H12.5H10.625V16.875Z" fill="#F4732A"/>
<path d="M28.7185 15.75C25.9841 16.2422 23.7263 18.5313 23.242 21.2891C22.4295 25.9766 26.4998 30.0782 31.156 29.2657C34.8982 28.6094 37.4138 25.0469 36.7654 21.336C36.1013 17.5547 32.5154 15.0625 28.7185 15.75ZM31.6795 17.1407C32.5623 17.4219 33.2263 17.836 33.9451 18.5547C34.656 19.2657 35.0701 19.9219 35.367 20.8204C35.5466 21.375 35.5701 21.5704 35.5701 22.5C35.5701 23.4297 35.5466 23.625 35.367 24.1797C35.0701 25.0782 34.656 25.7344 33.9451 26.4454C33.2341 27.1563 32.5779 27.5704 31.6795 27.8672C31.1248 28.0469 30.9295 28.0704 29.9998 28.0704C29.0701 28.0704 28.8748 28.0469 28.3201 27.8672C27.4295 27.5704 26.7732 27.1641 26.0545 26.4454C25.3435 25.7344 24.9295 25.0782 24.6326 24.1797C24.4529 23.625 24.4295 23.4297 24.4295 22.5C24.4216 21.5782 24.4529 21.3672 24.6248 20.8438C24.9295 19.9141 25.3435 19.25 26.0466 18.5469C26.906 17.6875 27.8904 17.1641 29.0232 16.9532C29.7107 16.8282 30.9763 16.9219 31.6795 17.1407Z" fill="#F4732A"/>
<path d="M26.875 22.5V23.125H27.5H28.125V22.5V21.875H27.5H26.875V22.5Z" fill="#F4732A"/>
<path d="M29.375 22.5V23.125H30H30.625V22.5V21.875H30H29.375V22.5Z" fill="#F4732A"/>
<path d="M31.875 22.5V23.125H32.5H33.125V22.5V21.875H32.5H31.875V22.5Z" fill="#F4732A"/>
</svg>
