<svg width="40" height="40" viewBox="0 0 40 40" fill="none" xmlns="http://www.w3.org/2000/svg">
<path d="M18.4064 2.1875C17.5548 3.21875 16.8048 4.10156 16.7501 4.14844C16.672 4.21875 16.1876 4.05469 14.7579 3.48438C13.7189 3.07031 12.8595 2.74219 12.836 2.75781C12.8126 2.78906 13.9767 6.74219 14.9298 9.85938L15.1642 10.625H20.0001H24.8282L25.0704 9.85938C25.8829 7.22656 27.1876 2.78906 27.1642 2.75781C27.1407 2.74219 26.2892 3.0625 25.2657 3.47656C24.2423 3.88281 23.3751 4.21875 23.3439 4.21875C23.3126 4.21875 22.5626 3.35156 21.672 2.28125C20.7892 1.21875 20.0392 0.34375 20.0079 0.335938C19.9845 0.328125 19.2579 1.15625 18.4064 2.1875ZM21.4767 4C22.2579 4.9375 22.9298 5.70312 22.9689 5.70312C23.0157 5.70312 23.5314 5.50781 24.1173 5.27344C24.7032 5.03906 25.1954 4.85938 25.2189 4.875C25.2423 4.90625 24.8282 6.34375 24.1329 8.60938L23.8985 9.375H20.0001H16.1017L15.8673 8.60938C15.172 6.34375 14.7579 4.90625 14.7814 4.875C14.8048 4.85938 15.297 5.03906 15.8829 5.27344C16.4689 5.50781 16.9845 5.70312 17.0235 5.70312C17.0626 5.70312 17.7423 4.92969 18.5235 3.98438C19.3126 3.03906 19.9845 2.28125 20.0079 2.28906C20.0392 2.29688 20.6954 3.07031 21.4767 4Z" fill="#F4732A"/>
<path d="M19.3752 4.47656C18.9923 4.60156 18.3361 5.27344 18.2189 5.67187C18.0002 6.40625 18.1564 6.99219 18.7111 7.53906C19.1095 7.94531 19.508 8.125 20.0002 8.125C20.4924 8.125 20.8908 7.94531 21.2892 7.53906C22.0549 6.78125 22.0783 5.80469 21.3517 5C20.8439 4.4375 20.1174 4.24219 19.3752 4.47656ZM20.4299 5.82031C20.5549 5.9375 20.6252 6.10156 20.6252 6.25C20.6252 6.39844 20.5549 6.5625 20.4299 6.67969C20.047 7.07031 19.3752 6.79687 19.3752 6.25C19.3752 5.92969 19.6798 5.625 20.0002 5.625C20.1486 5.625 20.3127 5.69531 20.4299 5.82031Z" fill="#F4732A"/>
<path d="M2.22665 8.25784C1.64071 8.45315 0.937586 9.18752 0.750086 9.7969C0.578211 10.3438 0.609461 10.9844 0.843836 11.5078C0.929774 11.7031 1.26571 12.1406 1.59384 12.4844C1.92196 12.8203 2.18759 13.125 2.18759 13.1563C2.18759 13.1797 2.1329 13.2031 2.0704 13.2031C1.64071 13.2031 0.875086 13.8985 0.718836 14.4453C0.453211 15.3203 0.890711 16.3047 1.70321 16.6719C1.99227 16.8047 2.01571 16.836 1.9454 17.0078C1.67196 17.7422 2.17196 18.8203 2.95321 19.1719C3.24227 19.3047 3.26571 19.336 3.1954 19.5078C2.92196 20.2422 3.42196 21.3203 4.20321 21.6719C4.49227 21.8047 4.51571 21.836 4.4454 22.0078C4.35165 22.2656 4.35946 22.6953 4.46884 23.0781C4.59384 23.5078 5.24227 24.1563 5.67196 24.2813C5.89852 24.3438 6.78134 24.375 8.58602 24.375C10.9845 24.375 11.1798 24.3828 11.2266 24.5078C11.3985 25 11.8595 25.8985 12.2188 26.4375C12.8985 27.4532 13.7891 28.3438 14.9141 29.1172C14.9766 29.1641 13.8751 30.2422 13.6563 30.3594C13.3985 30.4922 12.7579 30.5 12.5235 30.3672C12.4298 30.3125 11.5235 29.4844 10.5079 28.5157C8.5079 26.6172 8.22665 26.3828 7.5079 26.0625C4.86727 24.8828 1.84384 26.2578 0.906336 29.0625C0.726649 29.5938 0.671961 29.9141 0.640711 30.6641C0.578211 32.2657 0.843836 33.5703 1.50009 34.875C1.91415 35.711 2.18759 36.0938 2.87509 36.8125C3.85165 37.836 4.91415 38.5157 6.21102 38.961C7.81259 39.5078 10.0079 39.5078 11.2891 38.961C12.3282 38.5235 12.5235 38.3516 16.3126 34.5782L20.0001 30.8985L23.5782 34.461C25.5391 36.4219 27.297 38.1328 27.4688 38.2657C27.9688 38.6485 29.0391 39.1172 29.7032 39.2578C30.8751 39.4922 32.6016 39.3594 33.797 38.9532C35.0157 38.5391 35.8829 38.0157 36.8126 37.125C38.6173 35.3985 39.4688 33.2344 39.3595 30.6485C39.3126 29.5938 39.086 28.7969 38.6251 28.0313C37.3204 25.8828 34.7423 25.0547 32.4923 26.0625C31.7735 26.3828 31.4923 26.6172 29.4923 28.5157C28.4766 29.4844 27.5704 30.3125 27.4766 30.3672C27.2423 30.5 26.6016 30.4922 26.3438 30.3594C26.2266 30.2969 25.8907 29.9922 25.586 29.6875C25.1095 29.2032 25.0548 29.125 25.1798 29.0547C25.5079 28.8672 26.5157 28 26.922 27.5547C27.6485 26.75 28.4532 25.4375 28.7735 24.5078C28.8204 24.3828 29.0157 24.375 31.4141 24.375C33.2188 24.375 34.1016 24.3438 34.3282 24.2813C34.7579 24.1563 35.4063 23.5078 35.5313 23.0781C35.6407 22.6953 35.6485 22.2656 35.5548 22.0078C35.4845 21.836 35.5079 21.8047 35.797 21.6719C36.5782 21.3203 37.0782 20.2422 36.8048 19.5078C36.7345 19.336 36.7579 19.3047 37.047 19.1719C37.8282 18.8203 38.3282 17.7422 38.0548 17.0078C37.9845 16.836 38.0079 16.8047 38.297 16.6719C39.1095 16.3047 39.547 15.3203 39.2813 14.4453C39.1251 13.8985 38.3595 13.2031 37.9298 13.2031C37.8673 13.2031 37.8126 13.1797 37.8126 13.1563C37.8126 13.125 38.0782 12.8203 38.4063 12.4844C39.1641 11.6875 39.336 11.3281 39.336 10.5078C39.3282 9.77346 39.1641 9.35159 38.6641 8.84377C38.1798 8.3594 37.7345 8.1719 37.0313 8.16409C35.922 8.16409 36.1329 7.99221 31.7735 12.336C28.4532 15.6406 27.8673 16.1875 27.8048 16.0703C27.6173 15.7422 26.7501 14.7344 26.3048 14.3281C25.3985 13.5078 24.1329 12.7578 23.0157 12.3828C21.8985 12.0078 21.3673 11.9297 20.0001 11.9297C19.0782 11.9297 18.547 11.961 18.1407 12.0547C15.6016 12.6328 13.6485 13.9688 12.1251 16.1641C12.1173 16.1875 10.3751 14.4766 8.2579 12.3594C5.10946 9.21877 4.34384 8.49221 4.02352 8.35159C3.5079 8.12502 2.74227 8.08596 2.22665 8.25784ZM3.41415 9.45315C3.53134 9.50002 5.39852 11.2969 7.54696 13.4531L11.461 17.3594L11.2032 18.0938C11.0626 18.4922 10.8985 19.0547 10.8516 19.336L10.7501 19.8516L6.39071 15.4922C2.95321 12.0547 2.0079 11.0703 1.93759 10.8438C1.66415 9.93752 2.52352 9.12502 3.41415 9.45315ZM37.4532 9.4844C37.9532 9.69534 38.2345 10.336 38.0548 10.8672C37.9923 11.0547 36.7345 12.3672 33.6095 15.4922L29.2501 19.8516L29.1485 19.336C29.1016 19.0547 28.9376 18.4922 28.797 18.0938L28.5391 17.3594L32.4532 13.4531C34.6016 11.2969 36.4532 9.50002 36.5626 9.46096C36.8438 9.35159 37.1563 9.3594 37.4532 9.4844ZM21.1407 13.211C22.2657 13.3672 23.672 13.9141 24.6016 14.5547C25.1095 14.9063 26.1251 15.8906 26.5391 16.4375C27.5157 17.7422 28.1251 19.5938 28.1251 21.2891V21.9141L27.4766 21.9219C26.7188 21.9219 26.2423 22.1172 25.7423 22.6172C25.2345 23.125 25.047 23.5938 25.047 24.375C25.047 24.9531 25.0782 25.0938 25.2657 25.461C25.3829 25.6875 25.6329 26.0235 25.8204 26.211L26.172 26.5469L25.5626 27.1172C24.6251 28.0157 23.6016 28.625 22.3829 29.0078C19.9845 29.7657 17.2579 29.3047 15.2266 27.8047C14.6485 27.375 13.672 26.3906 13.3048 25.8516C12.6641 24.9219 12.1173 23.5156 11.961 22.3906C11.8673 21.7422 11.8516 20.7656 11.922 20.5L11.961 20.3438L12.4063 20.4922C13.0235 20.7031 13.6798 20.6328 14.3048 20.3047C14.8282 20.0235 15.0704 19.7735 15.3751 19.1875C15.547 18.8516 15.5782 18.6875 15.5782 18.125C15.586 17.5469 15.5548 17.4063 15.3673 17.0469C15.1173 16.5781 14.6407 16.0781 14.297 15.9375C14.172 15.8828 14.0626 15.8125 14.0626 15.7813C14.0626 15.6797 14.9532 14.875 15.4298 14.5547C17.1485 13.3985 19.1329 12.9297 21.1407 13.211ZM4.10165 15L4.72665 15.625H3.49227C2.28915 15.625 2.2579 15.6172 2.0704 15.4297C1.9454 15.3125 1.87509 15.1485 1.87509 15C1.87509 14.8516 1.9454 14.6875 2.0704 14.5703C2.23446 14.3985 2.32821 14.375 2.86727 14.375H3.47665L4.10165 15ZM37.9298 14.5703C38.0548 14.6875 38.1251 14.8516 38.1251 15C38.1251 15.1485 38.0548 15.3125 37.9298 15.4297C37.7423 15.6172 37.711 15.625 36.5079 15.625H35.2735L35.8985 15L36.5235 14.375H37.1329C37.672 14.375 37.7657 14.3985 37.9298 14.5703ZM6.60165 17.5L7.22665 18.125H5.36727H3.5079L3.3204 17.9297C3.1954 17.8125 3.12509 17.6485 3.12509 17.5C3.12509 17.3516 3.1954 17.1875 3.3204 17.0703C3.5079 16.8828 3.53915 16.875 4.74227 16.875H5.97665L6.60165 17.5ZM13.8673 17.1485C14.5626 17.6719 14.5235 18.6328 13.797 19.1719C13.4845 19.4063 12.7813 19.3985 12.4454 19.1563L12.1954 18.9766L12.3829 18.4688C12.4923 18.1875 12.7032 17.711 12.8673 17.4063C13.1407 16.8828 13.1641 16.8594 13.3829 16.9063C13.5157 16.9297 13.7345 17.0391 13.8673 17.1485ZM36.6798 17.0703C36.8048 17.1875 36.8751 17.3516 36.8751 17.5C36.8751 17.6485 36.8048 17.8125 36.6798 17.9297L36.4923 18.125H34.6329H32.7735L33.3985 17.5L34.0235 16.875H35.2579C36.461 16.875 36.4923 16.8828 36.6798 17.0703ZM9.10165 20L9.72665 20.625H7.24227H4.7579L4.5704 20.4297C4.4454 20.3125 4.37509 20.1485 4.37509 20C4.37509 19.8516 4.4454 19.6875 4.5704 19.5703L4.7579 19.375H6.61727H8.47665L9.10165 20ZM35.4298 19.5703C35.5548 19.6875 35.6251 19.8516 35.6251 20C35.6251 20.1485 35.5548 20.3125 35.4298 20.4297L35.2423 20.625H32.7579H30.2735L30.8985 20L31.5235 19.375H33.3829H35.2423L35.4298 19.5703ZM10.6563 21.9688C10.6798 22.0235 10.711 22.3047 10.7345 22.5938L10.7891 23.125H8.39852H6.0079L5.8204 22.9297C5.6954 22.8125 5.62509 22.6485 5.62509 22.5C5.62509 22.3516 5.6954 22.1875 5.8204 22.0703L6.0079 21.875H8.3204C10.1016 21.875 10.6407 21.8985 10.6563 21.9688ZM34.1798 22.0703C34.3048 22.1875 34.3751 22.3516 34.3751 22.5C34.3751 22.6485 34.3048 22.8125 34.1798 22.9297L33.9923 23.125H31.6016H29.211L29.2657 22.5938C29.2891 22.3047 29.3204 22.0235 29.3438 21.9688C29.3595 21.8985 29.8985 21.875 31.6798 21.875H33.9923L34.1798 22.0703ZM27.8438 23.1875C27.8985 23.2813 27.5313 24.3125 27.2266 24.9297C26.922 25.5235 26.836 25.5469 26.4923 25.1094C26.0313 24.5235 26.2891 23.5391 26.9923 23.2344C27.2501 23.1172 27.7813 23.0938 27.8438 23.1875ZM6.73446 27.0938C7.40634 27.3281 7.70321 27.5703 9.7579 29.5235C10.797 30.5157 11.7891 31.3985 11.9532 31.4844C12.6173 31.8282 13.6251 31.8047 14.297 31.4375C14.5001 31.3282 14.9923 30.9141 15.3907 30.5078L16.1095 29.7813L16.7501 30.0157C17.0938 30.1407 17.6563 30.3047 17.9923 30.3828L18.5938 30.5157L15.1407 33.9532C11.3438 37.7266 11.3516 37.7188 10.1095 38.0157C9.39852 38.1797 7.86727 38.125 7.03134 37.8985C4.42196 37.1953 2.4454 35.0703 1.99227 32.461C1.7579 31.0938 1.87509 29.7578 2.31259 28.8907C2.57821 28.3672 3.32821 27.586 3.8204 27.3203C4.67196 26.8516 5.80477 26.7656 6.73446 27.0938ZM35.3516 26.9922C36.0157 27.1719 36.5001 27.461 37.0235 28C37.8985 28.9141 38.1641 29.7578 38.1016 31.3672C38.0548 32.4532 37.8985 33.211 37.5391 34.0157C36.6251 36.0782 34.6641 37.625 32.461 38.0078C31.0626 38.25 29.8438 38.125 28.836 37.6407C28.3751 37.4219 27.961 37.0313 24.8595 33.9532L21.4063 30.5157L22.0079 30.3828C22.3438 30.3047 22.9063 30.1407 23.2501 30.0157L23.8907 29.7813L24.5782 30.4844C24.961 30.8672 25.4298 31.2735 25.6173 31.3907C26.3282 31.8047 27.336 31.8438 28.0548 31.4766C28.2266 31.3907 29.211 30.5157 30.2501 29.5235C32.0938 27.7657 32.5704 27.3594 33.0235 27.1797C33.7813 26.875 34.6251 26.8047 35.3516 26.9922Z" fill="#F4732A"/>
<path d="M20 14.9766V15.5938L20.3438 15.6875C21.25 15.9297 21.5469 17.0703 20.8672 17.7422C20.1953 18.4219 19.0547 18.125 18.8125 17.2188L18.7188 16.875H18.1016H17.4844L17.5391 17.2422C17.6016 17.7109 18 18.4609 18.3047 18.7188C18.4297 18.8281 18.7188 19.0078 18.9375 19.125C19.2734 19.2969 19.4375 19.3281 20 19.3281C20.5625 19.3281 20.7266 19.2969 21.0625 19.125C21.6484 18.8125 21.8984 18.5781 22.1953 18.0312C22.4375 17.5781 22.4609 17.4844 22.4609 16.875C22.4609 16.2656 22.4375 16.1719 22.1953 15.7188C22.0469 15.4453 21.8203 15.1406 21.6953 15.0312C21.3438 14.7344 20.7812 14.4766 20.3672 14.4141L20 14.3594V14.9766Z" fill="#F4732A"/>
<path d="M21.2502 20.7266C20.8673 20.8516 20.2111 21.5234 20.0939 21.9219C19.8752 22.6562 20.0314 23.2422 20.5861 23.7891C21.3752 24.5859 22.3752 24.5859 23.1642 23.7891C23.9299 23.0312 23.9533 22.0547 23.2267 21.25C22.7189 20.6875 21.9924 20.4922 21.2502 20.7266ZM22.3049 22.0703C22.6955 22.4531 22.422 23.125 21.8752 23.125C21.5548 23.125 21.2502 22.8203 21.2502 22.5C21.2502 22.1797 21.5548 21.875 21.8752 21.875C22.0236 21.875 22.1877 21.9453 22.3049 22.0703Z" fill="#F4732A"/>
<path d="M15.6252 23.2266C15.2424 23.3516 14.5861 24.0235 14.4689 24.4219C14.2971 25.0001 14.2971 25.0001 15.0002 25.0001C15.508 25.0001 15.6252 24.9766 15.6252 24.8829C15.6252 24.6719 15.9924 24.3751 16.2502 24.3751C16.7971 24.3751 17.0705 25.0469 16.6799 25.4297C16.5783 25.5391 16.4377 25.6251 16.3674 25.6251C16.2736 25.6251 16.2502 25.7422 16.2502 26.2501C16.2502 26.9532 16.2502 26.9532 16.8283 26.7813C17.258 26.6563 17.9064 26.0079 18.0314 25.5782C18.2346 24.8829 18.1018 24.3047 17.6018 23.7501C17.0939 23.1876 16.3674 22.9922 15.6252 23.2266Z" fill="#F4732A"/>
<path d="M4.7267 28.2578C4.45326 28.3515 4.19545 28.5312 3.85951 28.8672C3.20326 29.5234 3.08607 29.8984 3.14857 31.2812C3.21889 33 3.6642 34.0547 4.80482 35.1953C5.94545 36.3359 7.00013 36.7812 8.71888 36.8515C10.1017 36.914 10.4767 36.7969 11.1408 36.1406C11.7111 35.5625 11.922 35.0234 11.8517 34.2969C11.7736 33.414 11.6642 33.2734 9.19545 30.8047C7.38295 28.9922 6.83607 28.4844 6.52357 28.3515C6.00795 28.125 5.24232 28.0859 4.7267 28.2578ZM5.96107 29.4844C6.1017 29.5469 7.17982 30.5703 8.36732 31.7656C10.6564 34.0781 10.7033 34.1328 10.5861 34.7344C10.5236 35.0937 10.0861 35.5234 9.71888 35.5937C9.56263 35.625 9.07826 35.625 8.64076 35.6015C7.37513 35.539 6.48451 35.1484 5.62514 34.2812C4.74232 33.3906 4.32826 32.2265 4.38295 30.789C4.4142 30 4.5392 29.75 5.00795 29.5156C5.32826 29.3437 5.62514 29.3359 5.96107 29.4844Z" fill="#F4732A"/>
<path d="M5.60156 31.2344C5.39844 31.4375 5.23438 31.6406 5.23438 31.6797C5.23438 31.7266 5.92188 32.4453 6.75781 33.2812L8.28125 34.8047L8.72656 34.3516L9.17969 33.9062L7.65625 32.3828C6.82031 31.5469 6.09375 30.8594 6.05469 30.8594C6.00781 30.8594 5.80469 31.0312 5.60156 31.2344Z" fill="#F4732A"/>
<path d="M33.7032 28.2656C33.1485 28.4609 32.961 28.625 30.6095 30.9922C28.3517 33.2656 28.2267 33.4375 28.1485 34.2969C28.0782 35.0234 28.2892 35.5625 28.8595 36.1406C29.5235 36.7969 29.8985 36.914 31.2814 36.8515C33.0001 36.7812 34.0548 36.3359 35.1954 35.1953C35.9064 34.4844 36.3204 33.8281 36.6173 32.9297C36.8048 32.3672 36.8204 32.1797 36.8282 31.0937C36.8361 29.9844 36.8204 29.8515 36.6564 29.5234C36.422 29.0547 35.9376 28.5703 35.4845 28.3515C34.9767 28.1172 34.2189 28.0781 33.7032 28.2656ZM35.1407 29.5859C35.5626 29.8984 35.6407 30.1797 35.6017 31.2109C35.5704 31.8828 35.5157 32.2734 35.3986 32.6015C34.9142 33.9765 33.8985 34.9687 32.5001 35.4375C32.172 35.5469 31.836 35.5859 31.086 35.5859C30.1329 35.5859 30.1017 35.5781 29.8204 35.3672C29.4845 35.1094 29.3282 34.6875 29.4063 34.2422C29.461 33.9844 29.7423 33.664 31.6251 31.7656C32.8126 30.5703 33.8985 29.5469 34.0235 29.4844C34.3282 29.3437 34.8829 29.3906 35.1407 29.5859Z" fill="#F4732A"/>
<path d="M32.3594 32.3672C31.5391 33.1953 30.8594 33.9062 30.8594 33.9453C30.8594 34.0469 31.5781 34.7656 31.6797 34.7656C31.7266 34.7656 32.4453 34.0781 33.2812 33.2422L34.8047 31.7188L34.375 31.2891C34.1406 31.0547 33.9297 30.8594 33.9062 30.8594C33.8828 30.8594 33.1875 31.5391 32.3594 32.3672Z" fill="#F4732A"/>
</svg>
