<svg width="40" height="40" viewBox="0 0 40 40" fill="none" xmlns="http://www.w3.org/2000/svg">
<path d="M19.5703 0.0859375C17.8438 0.421875 16.4062 1.35938 15.4688 2.74219C14.7656 3.77344 14.4609 4.73438 14.3984 6.13281L14.3516 7.07812L13.5234 7.25781C13.0703 7.36719 12.6172 7.47656 12.5234 7.50781L12.3594 7.57031L12.5 8.125C12.5781 8.4375 12.6562 8.69531 12.6719 8.71094C12.7031 8.74219 13.5234 8.57031 13.8438 8.46875C13.9609 8.42969 13.9688 8.46094 13.8906 8.6875C13.8438 8.82812 13.7812 8.97656 13.75 9.00781C13.7188 9.03906 11.5234 9.57812 8.85938 10.1953C3.67969 11.3984 3.75 11.375 3.75 11.8516C3.75 11.9609 4.125 12.6719 4.60938 13.4688C5.07812 14.2578 5.50781 15.0547 5.55469 15.2422C5.75781 15.9922 5.39844 16.8359 4.71094 17.2422C4.35938 17.4453 4.28125 17.4609 3.42969 17.4609C2.5625 17.4609 2.51562 17.4531 2.14062 17.2266C1.90625 17.0781 1.67188 16.8438 1.52344 16.6094L1.28906 16.2266L1.26562 14.7734C1.23438 13.0234 1.3125 12.625 1.88281 11.75C2.09375 11.4297 2.27344 11.1719 2.28906 11.1719C2.30469 11.1719 3.14062 10.9766 4.14844 10.7422C5.15625 10.5 6.59375 10.1641 7.34375 9.99219C8.09375 9.82031 8.75 9.67188 8.79688 9.64844C8.89062 9.61719 8.71094 8.625 8.59375 8.49219C8.55469 8.44531 2.375 9.82031 1.61719 10.0469C1.39844 10.1172 0.476562 11.5703 0.242188 12.2109C0.046875 12.7578 0.0390625 12.8281 0.0390625 14.5703C0.0390625 16.2891 0.046875 16.3906 0.226562 16.8359C0.484375 17.4844 1.26562 18.2656 1.91406 18.5234C2.32812 18.6875 2.50781 18.7109 3.4375 18.7109C4.80469 18.7109 5.19531 18.5703 5.94531 17.8203C6.53125 17.2344 6.78906 16.6875 6.85156 15.8984C6.91406 15.1484 6.72656 14.5781 6.00781 13.3828C5.65625 12.8047 5.39062 12.3203 5.40625 12.2969C5.46094 12.25 13.5234 10.3906 13.6875 10.3906C13.7734 10.3906 13.8281 10.4453 13.8281 10.5469C13.8281 10.7656 14.1016 11.3203 14.3672 11.6484C14.6094 11.9375 15.2734 12.3438 15.6562 12.4141C15.8438 12.4531 15.9375 12.5625 16.1641 13.0078C16.6953 14.0391 17.3281 14.7656 18.2031 15.3438L18.6328 15.625H17.8438C16.5156 15.625 15.5859 15.9844 14.8203 16.7891C13.8594 17.7969 13.6172 18.7812 13.8359 20.8672C14.1328 23.8594 15.3359 26.7578 17.2109 28.9922C17.4766 29.3203 18.3047 30.1172 19.0469 30.7734C20.2656 31.8516 20.3906 31.9844 20.3906 32.2109C20.3906 32.3516 20.125 33.2578 19.8047 34.2188C19.4844 35.1797 19.2188 35.9922 19.2188 36.0156C19.2188 36.1016 20.3281 36.4219 20.3906 36.3516C20.4219 36.3203 20.7188 35.4766 21.0469 34.4844C21.9688 31.6719 21.9688 31.6562 19.8828 29.8359C18.0625 28.25 17.2969 27.2812 16.4062 25.4297C15.9922 24.5703 15.3906 22.9062 15.3906 22.6172C15.3906 22.5234 15.4609 22.5312 15.7812 22.6953C16.4922 23.0547 16.9453 23.125 18.5703 23.125H20.0703L25.0625 22.1875C27.8125 21.6719 30.2266 21.25 30.4375 21.25C30.7656 21.25 30.9062 21.1875 31.5234 20.7812L32.2422 20.3047L33.7578 21.1797C34.5938 21.6562 35.2891 22.0625 35.3047 22.0781C35.3281 22.0938 35.1797 22.2812 34.9766 22.4844C34.3359 23.1328 33.4219 23.5859 32.5391 23.7109L32.1406 23.7578L31.8359 23.0156C31.6641 22.6016 31.5 22.2656 31.4766 22.2656C31.4141 22.2656 30.3906 22.7422 30.3906 22.7734C30.3906 22.7812 30.5781 23.2656 30.8125 23.8359C31.6875 26.0234 32.1953 28.1719 32.4219 30.625C32.4609 31.1172 32.5 33.1484 32.5 35.1328V38.75H26.0625H19.6172L19.7734 38.3047C19.8516 38.0625 19.9219 37.8203 19.9219 37.7656C19.9219 37.6797 19.0859 37.3438 18.8594 37.3438C18.7578 37.3438 18.125 39.1406 18.125 39.4375C18.125 39.5391 18.2109 39.7031 18.3203 39.8047L18.5078 40H25.9375H33.3672L33.5625 39.8047L33.7656 39.6016L33.7266 34.9766C33.7031 31.2031 33.6719 30.1875 33.5625 29.4531C33.3828 28.1953 33.1562 27.0781 32.8438 25.9531C32.6953 25.4219 32.5781 24.9688 32.5781 24.9531C32.5781 24.9375 32.6797 24.9219 32.8047 24.9219C33.1797 24.9219 34.2109 24.5625 34.7656 24.2422C35.4141 23.8594 36.3594 22.9141 36.7422 22.2656C36.9062 21.9844 37.1328 21.4766 37.2422 21.1328L37.4531 20.5078L37.4844 17.4375L37.5078 14.375H36.8828H36.25V16.6016V18.8281L35.1797 18.1172C34.5859 17.7188 34.0938 17.3906 34.0781 17.3828C34.0703 17.375 34.1172 17.1406 34.1953 16.8672C34.3125 16.4297 34.3281 15.75 34.3672 11.5625L34.4141 6.76562L34.8828 6.67188C35.1406 6.61719 35.375 6.60156 35.4062 6.625C35.5 6.71875 35.9219 8.07031 36.0469 8.67188C36.1094 8.99219 36.1875 9.5625 36.2188 9.9375L36.2734 10.625H36.8984H37.5234L37.4688 9.91406C37.3906 8.88281 37.2188 8.0625 36.8594 6.97656L36.5469 6.02344L36.7422 5.76562C36.8438 5.625 36.9766 5.375 37.0312 5.21094C37.0859 5.02344 37.1797 4.90625 37.2891 4.88281C37.3828 4.85938 37.9688 4.71875 38.5938 4.57812C39.4609 4.375 39.75 4.27344 39.8594 4.14062C39.9844 3.99219 40 3.80469 40 2.79688C40 1.66406 39.9922 1.625 39.8047 1.44531C39.7031 1.33594 39.5547 1.25 39.4766 1.25C39.3984 1.25 38.625 1.41406 37.7578 1.60938L36.1875 1.97656L35.8203 1.73438C35.2578 1.35938 34.9531 1.35156 33.25 1.63281C32.0938 1.82031 31.5234 1.875 30.7031 1.875C29.4688 1.875 29.2031 1.9375 28.7656 2.3125C28.3594 2.65625 28.2188 2.91406 28.1406 3.45312L28.0859 3.86719L27.3438 4.03906C26.9375 4.13281 26.5859 4.21094 26.5625 4.21875C26.5391 4.21875 26.4609 4.04688 26.3828 3.83594C26.1953 3.30469 25.5625 2.35938 25.0391 1.83594C24.2422 1.04688 23.2891 0.507812 22.1094 0.179688C21.5781 0.0390625 20.0938 -0.015625 19.5703 0.0859375ZM21.6797 1.36719C23.0859 1.66406 24.3984 2.67188 25.0625 3.97656C25.2422 4.33594 25.3828 4.64062 25.3672 4.65625C25.3516 4.67188 25.2188 4.64844 25.0703 4.60938C24.6406 4.49219 23.0859 4.375 22.0234 4.375C18.4609 4.375 16.3203 5.21875 15.7344 6.86719C15.6328 7.13281 15.6328 7.11719 15.6328 6.44531C15.625 4.92969 16.1016 3.73438 17.1016 2.72656C18.3203 1.51562 19.9922 1.01562 21.6797 1.36719ZM35.1484 2.78906C35.3203 2.9375 35.8594 4.41406 35.8594 4.74219C35.8594 5.08594 35.5312 5.28125 34.6719 5.4375L34.375 5.48438V4.40625C34.3672 3.71094 34.3281 3.21875 34.2656 3.03125C34.1641 2.75781 34.1719 2.74219 34.3281 2.71094C34.7031 2.63281 34.9922 2.66406 35.1484 2.78906ZM38.75 2.95312V3.25781L37.9922 3.42969C37.5703 3.52344 37.1484 3.61719 37.0625 3.64062C36.9297 3.67969 36.875 3.63281 36.8047 3.42969C36.7578 3.28906 36.7266 3.16406 36.7422 3.15625C36.7578 3.13281 38.5469 2.6875 38.6953 2.66406C38.7266 2.65625 38.75 2.78906 38.75 2.95312ZM32.8359 3.21094C32.9297 3.26562 33.0312 3.34375 33.0625 3.39062C33.0938 3.4375 33.125 4.14844 33.125 4.97656V6.46875L32.7578 6.35938C32.0469 6.14062 31.2812 6.28906 30.6641 6.76562C30.3516 7 30.2812 7.02344 30.1719 6.9375C30.1016 6.88281 29.8906 6.71875 29.7109 6.5625L29.375 6.29688V4.88281C29.375 4.10938 29.4062 3.4375 29.4375 3.39062C29.5859 3.17188 29.8516 3.13281 31.2344 3.125C32.1641 3.125 32.7266 3.15625 32.8359 3.21094ZM28.125 5.42969C28.125 5.67188 28.1016 5.70312 27.8359 5.77344C27.1641 5.94531 27.1406 5.95312 27.0156 5.80469C26.7578 5.51562 26.8125 5.44531 27.3828 5.30469C28.1406 5.125 28.125 5.11719 28.125 5.42969ZM23.8672 5.70312C24.8281 5.79688 25.3984 6.00781 25.8516 6.42969C26.0859 6.64844 26.8984 7.8125 26.8516 7.85938C26.8438 7.875 26.5 7.82812 26.0938 7.76562C24.5859 7.53906 23.2031 7.46875 22.0781 7.57031C21.1094 7.65625 19.4766 7.90625 19.1875 8.01562C19.1094 8.04688 19 7.94531 18.8359 7.67969C18.7031 7.47656 18.5859 7.27344 18.5703 7.24219C18.5469 7.17188 17.6094 7.69531 17.5391 7.8125C17.4688 7.92188 18.2969 9.23438 18.4844 9.3125C18.6094 9.375 18.9219 9.34375 19.6562 9.19531C21.6172 8.80469 22.7734 8.71094 24.1406 8.82031C24.7188 8.875 25.2969 8.92969 25.4141 8.95312L25.6406 9L25.6094 10.4531C25.5859 11.8594 25.5781 11.9297 25.3672 12.3828C24.9219 13.3281 24.2188 14.0312 23.2188 14.5312C21.0469 15.6016 18.3828 14.7031 17.3438 12.5391C16.9219 11.6641 16.8594 11.2109 16.8906 9.00781L16.9141 7.11719L17.2266 6.79688C17.9844 6.02344 19.4531 5.65625 21.875 5.63281C22.5 5.63281 23.3984 5.66406 23.8672 5.70312ZM29.0312 7.625C29.7578 8.22656 29.8438 8.32031 29.8125 8.50781C29.7891 8.61719 29.7109 9.82812 29.6406 11.2031C29.5234 13.2891 29.4766 13.6953 29.375 13.7266C29.3125 13.7422 28.6094 14.0781 27.8203 14.4609C26.5938 15.0625 26.375 15.1953 26.3047 15.3906L26.2188 15.625H25.0391H23.8672L24.2734 15.3906C25.2188 14.8516 26.2734 13.5859 26.6406 12.5703C26.7969 12.1328 26.8281 11.8828 26.8594 10.6172L26.8906 9.16406L27.4453 9.26562C28.2109 9.41406 28.3359 9.40625 28.5547 9.17969C28.8359 8.90625 28.7969 8.65625 28.3594 7.9375C27.8672 7.11719 27.8438 7.05469 28.0234 7.00781C28.1016 6.98438 28.1719 6.96875 28.1875 6.96094C28.2031 6.96094 28.5859 7.25781 29.0312 7.625ZM32.5391 7.60938C32.6875 7.67188 32.8828 7.84375 32.9688 7.98438C33.125 8.23438 33.1328 8.32031 33.1016 12.2656C33.0781 15.7031 33.0625 16.3516 32.9531 16.7188C32.7344 17.4531 32.4922 18.0469 32.4219 18.0078C32.3906 17.9844 31.9766 17.3438 31.5 16.5859L30.6484 15.1953L30.8594 11.6953C31.1016 7.89062 31.0859 7.96094 31.5859 7.65625C31.8828 7.46875 32.1719 7.46094 32.5391 7.60938ZM15.625 9.9375V11.1172L15.4219 10.9297C15.1172 10.6484 15 10.3047 15 9.6875C15 9.20312 15.0234 9.10938 15.1953 8.94531C15.2969 8.83594 15.4375 8.75 15.5078 8.75C15.6094 8.75 15.625 8.92188 15.625 9.9375ZM30.3125 17.0391C30.9375 18.0391 31.4922 18.9297 31.5391 19.0234C31.6328 19.1953 31.6016 19.2266 31.0312 19.6016C30.6953 19.8203 30.3984 20 30.3672 20C30.3281 20 27.7734 16.4688 27.5547 16.1172C27.5156 16.0469 27.7344 15.8984 28.2578 15.6328C28.6797 15.4141 29.0625 15.2422 29.1016 15.2422C29.1484 15.2344 29.6875 16.0469 30.3125 17.0391ZM27.7344 18.5234C28.3828 19.4297 28.9062 20.1797 28.8906 20.1953C28.875 20.2031 26.8438 20.5859 24.3672 21.0469L19.8672 21.8906L18.3516 21.8594L16.8359 21.8359L16.3438 21.5703C15.8047 21.2734 15.4844 20.9453 15.2188 20.3906C14.9688 19.875 14.9766 18.8594 15.2344 18.3203C15.5625 17.6484 16.2109 17.1172 16.9141 16.9453C17.0469 16.9141 19.2656 16.8906 21.8516 16.8828L26.5547 16.875L27.7344 18.5234ZM34.9609 19.4766C35.6094 19.9062 36.1406 20.2656 36.1562 20.2734C36.2109 20.3203 36 20.9375 35.9297 20.9375C35.8672 20.9375 33.2969 19.5 33.2188 19.4141C33.2031 19.3984 33.2812 19.2109 33.3984 18.9922C33.5312 18.7266 33.6328 18.6094 33.6953 18.6406C33.75 18.6719 34.3203 19.0469 34.9609 19.4766Z" fill="#F4732A"/>
<path d="M10.7422 7.91412C10.5703 7.95318 10.3047 8.01568 10.1484 8.05474L9.86719 8.12505L9.98438 8.64849C10.0469 8.94537 10.125 9.21099 10.1563 9.25005C10.2578 9.35943 11.4219 9.07037 11.375 8.94537C11.3594 8.89068 11.2969 8.62505 11.2422 8.36724C11.1953 8.10162 11.1328 7.87505 11.1016 7.85943C11.0781 7.85162 10.9141 7.86724 10.7422 7.91412Z" fill="#F4732A"/>
<path d="M36.25 12.5V13.125H36.875H37.5V12.5V11.875H36.875H36.25V12.5Z" fill="#F4732A"/>
</svg>
